<?xml version="1.0" encoding="UTF-8" standalone="no"?>
<svg width="36px" height="49px" viewBox="0 0 36 49" version="1.1" xmlns="http://www.w3.org/2000/svg" xmlns:xlink="http://www.w3.org/1999/xlink">
    <!-- Generator: Sketch 40.3 (33839) - http://www.bohemiancoding.com/sketch -->
    <title>Chemicals</title>
    <desc>Created with Sketch.</desc>
    <defs>
        <polygon id="path-1" points="17.7930044 48.00946 35.586 48.00946 35.586 0.466022862 17.7930044 0.466022862 8.8129018e-06 0.466022862 8.8129018e-06 48.00946"></polygon>
    </defs>
    <g id="Page-1" stroke="none" stroke-width="1" fill="none" fill-rule="evenodd">
        <g id="Chemical" transform="translate(-118.000000, -19.000000)">
            <g id="Chemicals" transform="translate(118.000000, 19.000000)">
                <path d="M22.1342727,30.4899803 C22.617,30.4899803 23.0097273,30.0926606 23.0097273,29.6042885 C23.0097273,29.1159164 22.617,28.7185968 22.1342727,28.7185968 C21.6515455,28.7185968 21.2588182,29.1159164 21.2588182,29.6042885 C21.2588182,30.0926606 21.6515455,30.4899803 22.1342727,30.4899803" id="Fill-3" fill="#004b87"></path>
                <path d="M16.425,27.0662436 C17.0500909,27.0662436 17.559,26.5513835 17.559,25.9189831 C17.559,25.2865826 17.0500909,24.7725503 16.425,24.7725503 C15.7999091,24.7725503 15.291,25.2865826 15.291,25.9189831 C15.291,26.5513835 15.7999091,27.0662436 16.425,27.0662436" id="Fill-5" fill="#004b87"></path>
                <g id="Group-9" transform="translate(0.000000, 0.361478)">
                    <mask id="mask-2" fill="white">
                        <use xlink:href="#path-1"></use>
                    </mask>
                    <g id="Clip-8"></g>
                    <path d="M25.4453727,44.9823808 C25.4437364,44.9832085 25.4429182,44.9840363 25.4412818,44.984864 C25.4404636,44.9856918 25.4388273,44.9856918 25.4371909,44.9865195 C25.0084636,45.2290501 24.3931909,45.3681119 23.7492818,45.3681119 L11.8136455,45.3681119 C11.2073727,45.3681119 10.6248273,45.2315333 10.0807364,44.9625148 C7.45682727,43.528853 5.57255455,41.8634214 4.32237273,39.873512 C1.23782727,34.9624754 2.49700909,28.0722901 7.18928182,24.1876626 L7.73337273,23.7381947 C8.71928182,22.9882538 9.90400909,22.4146236 11.1329182,21.8443043 C13.5645545,20.8063067 15.1338273,18.4074892 15.1338273,15.7173039 L15.1338273,5.78596768 C15.1338273,5.76610169 15.1321909,5.74789121 15.1313727,5.72802523 C15.1305545,5.70484825 15.1297364,5.68167127 15.1272818,5.65849428 C15.1256455,5.6369728 15.1215545,5.61627907 15.1191,5.59558534 C15.1158273,5.57240836 15.1133727,5.54923138 15.1084636,5.52688214 C15.1043727,5.50618841 15.0986455,5.48632243 15.0937364,5.4656287 C15.0880091,5.44410721 15.0831,5.42175798 15.0773727,5.4002365 C15.0708273,5.37954277 15.0634636,5.36050453 15.0561,5.3398108 C15.0487364,5.31994482 15.0421909,5.29925108 15.0340091,5.2793851 C15.0258273,5.25951912 15.0160091,5.24048088 15.0070091,5.2206149 C14.9980091,5.20157667 14.9898273,5.18171068 14.9791909,5.1635002 C14.9693727,5.14446196 14.9587364,5.12707923 14.9472818,5.10804099 C14.9366455,5.08983051 14.9268273,5.07162002 14.9145545,5.05423729 C14.9031,5.03685455 14.8908273,5.02029957 14.8777364,5.00291683 C14.8654636,4.98636184 14.8540091,4.96815136 14.8409182,4.95159637 C14.8270091,4.93586914 14.8131,4.92096965 14.7991909,4.90524241 C14.7852818,4.88868743 14.7713727,4.87296019 14.7566455,4.85723295 C14.7419182,4.84316121 14.7271909,4.82991723 14.7124636,4.81584549 C14.6961,4.800946 14.6805545,4.78521876 14.6641909,4.77197477 C14.6494636,4.75873078 14.6331,4.74714229 14.6167364,4.73472605 C14.5995545,4.72148207 14.5823727,4.70741033 14.5643727,4.69499409 C14.5480091,4.6834056 14.5308273,4.67347261 14.5136455,4.66353961 C14.4948273,4.65112337 14.4760091,4.63953488 14.4571909,4.62877414 C14.4391909,4.61884115 14.4211909,4.61056366 14.4023727,4.60145842 C14.3827364,4.59152542 14.3639182,4.58076468 14.3434636,4.57248719 C14.3246455,4.5642097 14.3050091,4.5575877 14.2853727,4.55013796 C14.2649182,4.54268821 14.2452818,4.53358297 14.2240091,4.52696098 C14.2035545,4.52116673 14.1831,4.51620024 14.1618273,4.51040599 C14.1413727,4.50461175 14.1209182,4.4988175 14.0988273,4.49385101 C14.0775545,4.48971226 14.0562818,4.48640126 14.0341909,4.48309026 C14.0129182,4.47977927 13.9916455,4.47564052 13.9695545,4.47315727 C13.9474636,4.47067402 13.9253727,4.47067402 13.9032818,4.46901853 C13.8836455,4.46819078 13.8640091,4.46570753 13.8435545,4.46487978 C13.4868273,4.46074103 13.1963727,4.1445408 13.1963727,3.76046512 C13.1963727,3.39294442 13.4745545,3.11233741 13.8427364,3.10737091 L21.7193727,3.10737091 C22.0965545,3.11233741 22.3919182,3.39873867 22.3919182,3.76046512 C22.3919182,4.1379188 22.0842818,4.45991328 21.7193727,4.46487978 L17.6292818,4.46487978 C16.9084636,4.46487978 16.3242818,5.05672054 16.3242818,5.78596768 C16.3242818,6.51521482 16.9084636,7.10622783 17.6292818,7.10622783 L20.4282818,7.10622783 L20.4282818,15.7173039 C20.4282818,18.4149389 22.0081909,20.8220339 24.4545545,21.861687 L24.4586455,21.8641703 C25.0420091,22.1265668 25.6065545,22.4146236 26.1367364,22.7192353 C27.9162818,23.743989 29.4814636,25.1453685 30.6629182,26.7710682 C31.4459182,27.8487978 32.0423727,29.04324 32.4359182,30.3196295 C32.9301,31.9279464 33.0765545,33.6372487 32.8826455,35.2894363 L25.6662818,35.2894363 C25.2441,33.7100907 23.8212818,32.5454474 22.1341909,32.5454474 C20.4348273,32.5454474 19.0021909,33.7100907 18.5775545,35.2894363 L5.50955455,35.2894363 C5.50219091,35.2894363 5.49564545,35.2902641 5.48828182,35.2910918 C5.46700909,35.2910918 5.44573636,35.2919196 5.42446364,35.2935751 C5.41137273,35.2952306 5.3991,35.2968861 5.38600909,35.2985416 C5.36800909,35.3010248 5.35000909,35.3035081 5.33282727,35.3068191 C5.31564545,35.3093023 5.29928182,35.3134411 5.28291818,35.3175798 C5.26982727,35.3217186 5.25673636,35.3242018 5.24282727,35.3283406 C5.22319091,35.3341348 5.20355455,35.3407568 5.18391818,35.3482065 C5.17737273,35.3506898 5.17000909,35.3523453 5.16182727,35.3556563 C5.15937273,35.356484 5.1561,35.3581395 5.15364545,35.359795 C5.13400909,35.3672448 5.11437273,35.37635 5.09555455,35.3854553 C5.08491818,35.3904218 5.0751,35.3953883 5.06446364,35.4011825 C5.0481,35.40946 5.03337273,35.4185652 5.01782727,35.4276705 C5.00555455,35.4351202 4.99246364,35.44257 4.98019091,35.4508475 C4.96955455,35.4582972 4.9581,35.4665747 4.94746364,35.4748522 C4.93273636,35.4856129 4.91800909,35.4963737 4.9041,35.5079622 C4.89591818,35.5145842 4.88773636,35.5220339 4.87955455,35.5294836 C4.86482727,35.5427276 4.84928182,35.5567994 4.83455455,35.5708711 C4.82719091,35.5783209 4.82064545,35.5857706 4.8141,35.5932203 C4.80019091,35.6081198 4.78546364,35.6230193 4.77237273,35.6387466 C4.76419091,35.6495073 4.75682727,35.6594403 4.74946364,35.670201 C4.73882727,35.6842728 4.72819091,35.6975168 4.71837273,35.7124162 C4.70855455,35.726488 4.69955455,35.7413875 4.69055455,35.756287 C4.68400909,35.7678754 4.67664545,35.7786362 4.6701,35.7902247 C4.6611,35.8084352 4.6521,35.8266456 4.64391818,35.8448561 C4.63900909,35.8547891 4.6341,35.8638944 4.63000909,35.8738274 C4.62182727,35.8920378 4.61528182,35.9119038 4.60791818,35.9301143 C4.60464545,35.940875 4.60055455,35.950808 4.59728182,35.9615688 C4.59155455,35.9789515 4.58746364,35.9963343 4.58255455,36.0145447 C4.57928182,36.0277887 4.57519091,36.0410327 4.57191818,36.0542767 C4.56946364,36.0691762 4.56700909,36.0840757 4.56455455,36.0981474 C4.5621,36.1163579 4.55882727,36.1337406 4.55637273,36.1519511 C4.55555455,36.1635396 4.55473636,36.1751281 4.55391818,36.1867166 C4.55228182,36.2082381 4.55064545,36.2289318 4.55064545,36.2504533 C4.55064545,36.2537643 4.54982727,36.2570753 4.54982727,36.2603863 C4.54982727,36.2686638 4.55064545,36.2761135 4.55146364,36.2835633 C4.55146364,36.3050847 4.55228182,36.3257785 4.55473636,36.3464722 C4.55555455,36.3597162 4.55719091,36.3737879 4.55964545,36.3870319 C4.56128182,36.4044147 4.56373636,36.4217974 4.56700909,36.4391801 C4.57028182,36.4565629 4.57437273,36.4739456 4.57846364,36.4905006 C4.58173636,36.5037446 4.58419091,36.5169886 4.58828182,36.5302326 C4.59400909,36.5500985 4.60055455,36.5707923 4.60791818,36.5898305 C4.61119091,36.5972803 4.61282727,36.60473 4.61528182,36.6121797 L4.62346364,36.6328735 C4.62428182,36.6361845 4.62591818,36.63784 4.62673636,36.641151 C5.76891818,39.5937328 8.02955455,42.059598 10.8326455,43.4096571 C10.9660091,43.4742215 11.1059182,43.5040205 11.2450091,43.5040205 C11.6033727,43.5040205 11.9470091,43.3003942 12.1114636,42.9502562 C12.3397364,42.4660229 12.1360091,41.8874261 11.6573727,41.656484 C9.71419091,40.7202996 8.07946364,39.1467481 7.02073636,37.2313362 L19.4088273,37.2313362 C19.4751,37.2313362 19.5397364,37.2247142 19.6019182,37.2114702 C20.0396455,37.1212456 20.3685545,36.7297201 20.3685545,36.2603863 C20.3685545,35.2993693 21.1769182,34.4873473 22.1341909,34.4873473 C23.0931,34.4873473 23.8736455,35.2828143 23.8736455,36.2603863 C23.8736455,36.2736303 23.8752818,36.287702 23.8761,36.300946 C23.8769182,36.320812 23.8769182,36.340678 23.8793727,36.3597162 C23.8801909,36.3746157 23.8834636,36.3886874 23.8859182,36.4027592 C23.8883727,36.4201419 23.8900091,36.4383524 23.8941,36.4565629 C23.8990091,36.4838786 23.9063727,36.5120221 23.9145545,36.5385101 C23.9153727,36.5426488 23.9161909,36.5459598 23.9170091,36.5492708 C24.0184636,36.878715 24.2892818,37.1328341 24.6263727,37.2081592 C24.6312818,37.208987 24.6361909,37.2106425 24.6411,37.2114702 C24.6541909,37.2147812 24.6689182,37.2164367 24.6820091,37.2180922 C24.7000091,37.2214032 24.7171909,37.2247142 24.7360091,37.2263697 C24.7433727,37.2271975 24.7507364,37.2271975 24.7581,37.2280252 C24.7834636,37.2296807 24.8088273,37.2313362 24.8341909,37.2313362 L32.4858273,37.2313362 C32.3565545,37.6700434 32.2027364,38.0979898 32.0219182,38.5135199 C31.9229182,38.6509263 31.8517364,38.8057154 31.8108273,38.968782 C30.6637364,41.2939298 28.6281,43.2143082 25.4453727,44.9823808 M2.58782727,41.9892393 C4.0671,44.06689 6.13055455,45.8101301 8.86982727,47.3025621 C8.87882727,47.3083563 8.88946364,47.3124951 8.89846364,47.3174616 C8.90337273,47.3199448 8.90664545,47.3224281 8.91073636,47.3240836 C8.92137273,47.3290501 8.93119091,47.3340166 8.94182727,47.3389831 C8.94346364,47.3398108 8.94428182,47.3406385 8.9451,47.3406385 C9.84591818,47.7843122 10.8105545,48.00946 11.8136455,48.00946 L23.7492818,48.00946 C24.8341909,48.00946 25.8798273,47.7578242 26.6955545,47.3009066 C26.6980091,47.2992511 26.7004636,47.2984233 26.7021,47.2975956 C26.7045545,47.2959401 26.7061909,47.2951123 26.7086455,47.2942846 C26.7086455,47.2934568 26.7094636,47.2934568 26.7094636,47.2934568 L26.7111,47.2926291 C29.4790091,45.7538431 31.5571909,44.0197083 32.9988273,42.0380765 L34.5361909,39.2816713 C35.7847364,36.2214821 35.9262818,32.7739062 34.9281,29.5340954 C34.4486455,27.9770989 33.7212818,26.5210879 32.7656455,25.206622 C31.3690091,23.2845881 29.5223727,21.630745 27.4278273,20.4238865 C26.8240091,20.0762318 26.1817364,19.7492708 25.5198273,19.4504533 C25.5141,19.44797 25.5083727,19.4463145 25.5026455,19.4438313 C25.4969182,19.4421758 25.4928273,19.4388648 25.4879182,19.4363816 C23.9996455,18.8147418 23.0391,17.3554198 23.0391,15.7173039 L23.0391,6.81982657 C24.1935545,6.296689 25.0027364,5.11797399 25.0027364,3.76046512 C25.0027364,1.96507686 23.5431,0.487544344 21.7488273,0.466022862 C21.7463727,0.466022862 21.7447364,0.466850611 21.7422818,0.466850611 C21.7390091,0.466850611 21.7365545,0.466022862 21.7341,0.466022862 L13.8288273,0.466022862 C13.8255545,0.466022862 13.8231,0.466850611 13.8206455,0.466850611 C13.8181909,0.466850611 13.8157364,0.466022862 13.8132818,0.466022862 C12.0034636,0.488372093 10.5855545,1.93445014 10.5855545,3.76046512 C10.5855545,5.11383524 11.3841,6.28923926 12.5230091,6.81486007 L12.5230091,15.7173039 C12.5230091,17.351281 11.5681909,18.8056366 10.0905545,19.4239653 C10.0831909,19.4264486 10.0758273,19.4305873 10.0684636,19.4338983 C10.0602818,19.4380371 10.0529182,19.4405203 10.0447364,19.4438313 C8.67346364,20.0795428 7.3431,20.726015 6.14446364,21.6415057 C6.13055455,21.6522665 6.11828182,21.6638549 6.10519091,21.6746157 L6.10437273,21.6737879 L5.53573636,22.1439495 C2.81200909,24.3987387 0.941645455,27.5623965 0.2691,31.0530154 C-0.271718182,33.8599133 0.00891818182,36.6899882 1.05455455,39.2245566" id="Fill-7" fill="#004b87" mask="url(#mask-2)"></path>
                </g>
            </g>
        </g>
    </g>
</svg>