<?xml version="1.0" encoding="UTF-8" standalone="no"?>
<svg width="63px" height="46px" viewBox="0 0 63 46" version="1.1" xmlns="http://www.w3.org/2000/svg" xmlns:xlink="http://www.w3.org/1999/xlink">
    <!-- Generator: Sketch 40.3 (33839) - http://www.bohemiancoding.com/sketch -->
    <title>Religious-organisations</title>
    <desc>Created with Sketch.</desc>
    <defs></defs>
    <g id="Page-1" stroke="none" stroke-width="1" fill="none" fill-rule="evenodd">
        <g id="Churches" transform="translate(-105.000000, -21.000000)">
            <g id="Religious-organisations" transform="translate(105.000000, 21.000000)">
                <path d="M15.6734852,21.8458846 C15.5494852,21.8735769 15.4254852,21.7962692 15.3967815,21.6716538 L11.9580778,6.46626923 C11.580337,4.79665385 12.6240037,3.12934615 14.2842259,2.75088462 C15.9455963,2.37126923 17.6046704,3.42011538 17.9824111,5.08973077 L19.6024481,12.2516538 C19.6300037,12.3751154 19.5530778,12.4997308 19.4290778,12.5285769 C19.3039296,12.5574231 19.1810778,12.4789615 19.1523741,12.3543462 L17.532337,5.19242308 C17.2108556,3.77203846 15.7997815,2.88011538 14.3864111,3.20319231 C12.9741889,3.52626923 12.0866704,4.94319231 12.4070037,6.36357692 L15.8468556,21.5678077 C15.8755593,21.6935769 15.796337,21.8181923 15.6734852,21.8458846" id="Fill-1" fill="#156E96"></path>
                <path d="M15.6734852,21.8458846 C15.5494852,21.8735769 15.4254852,21.7962692 15.3967815,21.6716538 L11.9580778,6.46626923 C11.580337,4.79665385 12.6240037,3.12934615 14.2842259,2.75088462 C15.9455963,2.37126923 17.6046704,3.42011538 17.9824111,5.08973077 L19.6024481,12.2516538 C19.6300037,12.3751154 19.5530778,12.4997308 19.4290778,12.5285769 C19.3039296,12.5574231 19.1810778,12.4789615 19.1523741,12.3543462 L17.532337,5.19242308 C17.2108556,3.77203846 15.7997815,2.88011538 14.3864111,3.20319231 C12.9741889,3.52626923 12.0866704,4.94319231 12.4070037,6.36357692 L15.8468556,21.5678077 C15.8755593,21.6935769 15.796337,21.8181923 15.6734852,21.8458846 L15.6734852,21.8458846 Z" id="Stroke-3" stroke="#156E96"></path>
                <path d="M9.52802222,20.6007692 C9.40402222,20.6296154 9.28002222,20.5523077 9.25246667,20.4265385 L5.61972593,4.37076923 C5.24198519,2.70115385 6.2868,1.03384615 7.94702222,0.654230769 C9.60839259,0.274615385 11.2674667,1.32461538 11.6452074,2.99423077 L12.4075778,6.36346154 C12.4351333,6.48807692 12.3582074,6.61269231 12.2330593,6.64153846 C12.1090593,6.66923077 11.9850593,6.59076923 11.9563556,6.46615385 L11.1939852,3.09692308 C10.8736519,1.67769231 9.46142963,0.784615385 8.04920741,1.10653846 C6.63698519,1.42961538 5.74946667,2.84769231 6.0698,4.26807692 L9.70254074,20.3226923 C9.73124444,20.4484615 9.65202222,20.5730769 9.52802222,20.6007692" id="Fill-5" fill="#156E96"></path>
                <path d="M9.52802222,20.6007692 C9.40402222,20.6296154 9.28002222,20.5523077 9.25246667,20.4265385 L5.61972593,4.37076923 C5.24198519,2.70115385 6.2868,1.03384615 7.94702222,0.654230769 C9.60839259,0.274615385 11.2674667,1.32461538 11.6452074,2.99423077 L12.4075778,6.36346154 C12.4351333,6.48807692 12.3582074,6.61269231 12.2330593,6.64153846 C12.1090593,6.66923077 11.9850593,6.59076923 11.9563556,6.46615385 L11.1939852,3.09692308 C10.8736519,1.67769231 9.46142963,0.784615385 8.04920741,1.10653846 C6.63698519,1.42961538 5.74946667,2.84769231 6.0698,4.26807692 L9.70254074,20.3226923 C9.73124444,20.4484615 9.65202222,20.5730769 9.52802222,20.6007692 L9.52802222,20.6007692 Z" id="Stroke-7" stroke="#156E96"></path>
                <path d="M3.21768519,18.6260769 C3.09368519,18.6537692 2.96968519,18.5753077 2.94212963,18.4506923 L0.651574074,8.32569231 C0.273833333,6.65607692 1.31864815,4.98992308 2.97887037,4.61030769 C4.64024074,4.23069231 6.29931481,5.28069231 6.67705556,6.94915385 C6.70461111,7.07376923 6.62768519,7.19838462 6.50253704,7.22723077 C6.37853704,7.25607692 6.25453704,7.17646154 6.22583333,7.05184615 C5.9055,5.63146154 4.49442593,4.73953846 3.0822037,5.06261538 C1.66768519,5.38569231 0.780166667,6.80261538 1.1005,8.223 L3.39105556,18.348 C3.41975926,18.4726154 3.34168519,18.5972308 3.21768519,18.6260769" id="Fill-9" fill="#156E96"></path>
                <path d="M3.21768519,18.6260769 C3.09368519,18.6537692 2.96968519,18.5753077 2.94212963,18.4506923 L0.651574074,8.32569231 C0.273833333,6.65607692 1.31864815,4.98992308 2.97887037,4.61030769 C4.64024074,4.23069231 6.29931481,5.28069231 6.67705556,6.94915385 C6.70461111,7.07376923 6.62768519,7.19838462 6.50253704,7.22723077 C6.37853704,7.25607692 6.25453704,7.17646154 6.22583333,7.05184615 C5.9055,5.63146154 4.49442593,4.73953846 3.0822037,5.06261538 C1.66768519,5.38569231 0.780166667,6.80261538 1.1005,8.223 L3.39105556,18.348 C3.41975926,18.4726154 3.34168519,18.5972308 3.21768519,18.6260769 L3.21768519,18.6260769 Z" id="Stroke-11" stroke="#156E96"></path>
                <path d="M17.4450778,34.3122692 C17.3210778,34.3411154 17.1970778,34.2626538 17.1695222,34.1380385 C16.9651519,33.2391923 15.2819667,32.9449615 13.6538926,32.6599615 C12.0683,32.3830385 10.4275963,32.0957308 9.72722593,31.2199615 C8.38389259,29.5399615 6.44467037,20.9784231 6.36315185,20.6149615 C6.04167037,19.1957308 4.6305963,18.3026538 3.21722593,18.6257308 C3.09322593,18.6545769 2.97037407,18.5749615 2.94167037,18.4515 C2.91411481,18.3257308 2.99104074,18.2011154 3.11618889,18.1734231 C4.77641111,17.7938077 6.43548519,18.8426538 6.81322593,20.5122692 C6.83389259,20.6011154 8.80985556,29.3311154 10.0877444,30.9291923 C10.6778926,31.6688077 12.231337,31.9399615 13.7331148,32.2030385 C15.5919667,32.5284231 17.3474852,32.8353462 17.6184481,34.0341923 C17.6471519,34.1599615 17.5690778,34.2845769 17.4450778,34.3122692" id="Fill-13" fill="#156E96"></path>
                <path d="M17.1695222,34.1380385 C16.9651519,33.2391923 15.2819667,32.9449615 13.6538926,32.6599615 C12.0683,32.3830385 10.4275963,32.0957308 9.72722593,31.2199615 C8.38389259,29.5399615 6.44467037,20.9784231 6.36315185,20.6149615 C6.04167037,19.1957308 4.6305963,18.3026538 3.21722593,18.6257308 C3.09322593,18.6545769 2.97037407,18.5749615 2.94167037,18.4515 C2.91411481,18.3257308 2.99104074,18.2011154 3.11618889,18.1734231 C4.77641111,17.7938077 6.43548519,18.8426538 6.81322593,20.5122692 C6.83389259,20.6011154 8.80985556,29.3311154 10.0877444,30.9291923 C10.6778926,31.6688077 12.231337,31.9399615 13.7331148,32.2030385 C15.5919667,32.5284231 17.3474852,32.8353462 17.6184481,34.0341923 C17.6471519,34.1599615 17.5690778,34.2845769 17.4450778,34.3122692 C17.3210778,34.3411154 17.1970778,34.2626538 17.1695222,34.1380385 Z" id="Stroke-15" stroke="#156E96"></path>
                <path d="M19.2379111,44.1814615 C12.2032074,45.7887692 5.17539259,41.3303077 3.57142963,34.2433846 C3.55535556,34.1683846 3.53698519,34.0956923 3.51861481,34.023 C3.48302222,33.8764615 3.44628148,33.7253077 3.41987407,33.5695385 L0.788318519,21.8891538 C0.410577778,20.2195385 1.45424444,18.5522308 3.11561481,18.1726154 C3.23961481,18.1449231 3.36361481,18.2233846 3.39117037,18.348 C3.41987407,18.4726154 3.3418,18.5972308 3.2178,18.6260769 C1.80442963,18.9491538 0.916911111,20.3660769 1.23839259,21.7864615 L3.94113333,33.7806923 L3.93654074,33.7818462 C3.94687407,33.8233846 3.95605926,33.8672308 3.96754074,33.9110769 C3.98591111,33.9872308 4.00428148,34.0633846 4.02265185,34.1395385 C5.56920741,40.9783846 12.3490222,45.2787692 19.1357259,43.728 C25.9396519,42.1737692 30.2176519,35.3464615 28.6699481,28.5087692 C28.6619111,28.4706923 28.6515778,28.4349231 28.6412444,28.3968462 C28.6194296,28.3160769 28.5964667,28.2306923 28.5861333,28.1360769 L24.7272074,11.0810769 C24.4057259,9.66069231 22.9946519,8.76761538 21.5824296,9.08953846 C20.1702074,9.41261538 19.2815407,10.8306923 19.6018741,12.2510769 L22.1542074,23.5299231 C22.181763,23.6545385 22.104837,23.7791538 21.980837,23.808 C21.8556889,23.8356923 21.7316889,23.7572308 21.7029852,23.6326154 L19.1529481,12.3549231 C18.7752074,10.6841538 19.8188741,9.01684615 21.4802444,8.63838462 C23.1404667,8.25876923 24.8006889,9.30761538 25.1784296,10.9772308 L29.0419481,28.0587692 L29.0430963,28.0737692 C29.0499852,28.1372308 29.0695037,28.2041538 29.0878741,28.2756923 C29.0993556,28.3183846 29.110837,28.3622308 29.1200222,28.4060769 C30.7239852,35.493 26.2921333,42.5706923 19.2379111,44.1814615" id="Fill-17" fill="#156E96"></path>
                <path d="M19.2379111,44.1814615 C12.2032074,45.7887692 5.17539259,41.3303077 3.57142963,34.2433846 C3.55535556,34.1683846 3.53698519,34.0956923 3.51861481,34.023 C3.48302222,33.8764615 3.44628148,33.7253077 3.41987407,33.5695385 L0.788318519,21.8891538 C0.410577778,20.2195385 1.45424444,18.5522308 3.11561481,18.1726154 C3.23961481,18.1449231 3.36361481,18.2233846 3.39117037,18.348 C3.41987407,18.4726154 3.3418,18.5972308 3.2178,18.6260769 C1.80442963,18.9491538 0.916911111,20.3660769 1.23839259,21.7864615 L3.94113333,33.7806923 L3.93654074,33.7818462 C3.94687407,33.8233846 3.95605926,33.8672308 3.96754074,33.9110769 C3.98591111,33.9872308 4.00428148,34.0633846 4.02265185,34.1395385 C5.56920741,40.9783846 12.3490222,45.2787692 19.1357259,43.728 C25.9396519,42.1737692 30.2176519,35.3464615 28.6699481,28.5087692 C28.6619111,28.4706923 28.6515778,28.4349231 28.6412444,28.3968462 C28.6194296,28.3160769 28.5964667,28.2306923 28.5861333,28.1360769 L24.7272074,11.0810769 C24.4057259,9.66069231 22.9946519,8.76761538 21.5824296,9.08953846 C20.1702074,9.41261538 19.2815407,10.8306923 19.6018741,12.2510769 L22.1542074,23.5299231 C22.181763,23.6545385 22.104837,23.7791538 21.980837,23.808 C21.8556889,23.8356923 21.7316889,23.7572308 21.7029852,23.6326154 L19.1529481,12.3549231 C18.7752074,10.6841538 19.8188741,9.01684615 21.4802444,8.63838462 C23.1404667,8.25876923 24.8006889,9.30761538 25.1784296,10.9772308 L29.0419481,28.0587692 L29.0430963,28.0737692 C29.0499852,28.1372308 29.0695037,28.2041538 29.0878741,28.2756923 C29.0993556,28.3183846 29.110837,28.3622308 29.1200222,28.4060769 C30.7239852,35.493 26.2921333,42.5706923 19.2379111,44.1814615 L19.2379111,44.1814615 Z" id="Stroke-19" stroke="#156E96"></path>
                <path d="M46.7621222,21.8458846 C46.6392704,21.8181923 46.5600481,21.6935769 46.5887519,21.5678077 L50.0286037,6.36357692 C50.3500852,4.94319231 49.4625667,3.52626923 48.0491963,3.20319231 C46.6358259,2.88011538 45.2247519,3.77203846 44.9032704,5.19242308 L43.2843815,12.3543462 C43.2545296,12.4789615 43.1316778,12.5574231 43.0065296,12.5285769 C42.8825296,12.4997308 42.8056037,12.3751154 42.8331593,12.2516538 L44.4531963,5.08973077 C44.830937,3.42011538 46.4900111,2.37126923 48.1513815,2.75088462 C49.8116037,3.12934615 50.8564185,4.79665385 50.4786778,6.46626923 L47.0388259,21.6716538 C47.0112704,21.7962692 46.8861222,21.8735769 46.7621222,21.8458846" id="Fill-21" fill="#156E96"></path>
                <path d="M46.5887519,21.5678077 L50.0286037,6.36357692 C50.3500852,4.94319231 49.4625667,3.52626923 48.0491963,3.20319231 C46.6358259,2.88011538 45.2247519,3.77203846 44.9032704,5.19242308 L43.2843815,12.3543462 C43.2545296,12.4789615 43.1316778,12.5574231 43.0065296,12.5285769 C42.8825296,12.4997308 42.8056037,12.3751154 42.8331593,12.2516538 L44.4531963,5.08973077 C44.830937,3.42011538 46.4900111,2.37126923 48.1513815,2.75088462 C49.8116037,3.12934615 50.8564185,4.79665385 50.4786778,6.46626923 L47.0388259,21.6716538 C47.0112704,21.7962692 46.8861222,21.8735769 46.7621222,21.8458846 C46.6392704,21.8181923 46.5600481,21.6935769 46.5887519,21.5678077 Z" id="Stroke-23" stroke="#156E96"></path>
                <path d="M52.9075852,20.6007692 C52.7835852,20.5730769 52.704363,20.4484615 52.7342148,20.3226923 L56.3658074,4.26807692 C56.6861407,2.84769231 55.7986222,1.42961538 54.3864,1.10653846 C52.9741778,0.784615385 51.5619556,1.67769231 51.2416222,3.09692308 L50.4792519,6.46615385 C50.4505481,6.59076923 50.3265481,6.66923077 50.2025481,6.64153846 C50.0785481,6.61269231 50.0004741,6.48807692 50.0280296,6.36346154 L50.7904,2.99423077 C51.1681407,1.32461538 52.8272148,0.274615385 54.4885852,0.654230769 C56.1488074,1.03384615 57.1936222,2.70115385 56.8158815,4.37076923 L53.1842889,20.4265385 C53.1555852,20.5523077 53.0315852,20.6296154 52.9075852,20.6007692" id="Fill-25" fill="#156E96"></path>
                <path d="M52.7342148,20.3226923 L56.3658074,4.26807692 C56.6861407,2.84769231 55.7986222,1.42961538 54.3864,1.10653846 C52.9741778,0.784615385 51.5619556,1.67769231 51.2416222,3.09692308 L50.4792519,6.46615385 C50.4505481,6.59076923 50.3265481,6.66923077 50.2025481,6.64153846 C50.0785481,6.61269231 50.0004741,6.48807692 50.0280296,6.36346154 L50.7904,2.99423077 C51.1681407,1.32461538 52.8272148,0.274615385 54.4885852,0.654230769 C56.1488074,1.03384615 57.1936222,2.70115385 56.8158815,4.37076923 L53.1842889,20.4265385 C53.1555852,20.5523077 53.0315852,20.6296154 52.9075852,20.6007692 C52.7835852,20.5730769 52.704363,20.4484615 52.7342148,20.3226923 Z" id="Stroke-27" stroke="#156E96"></path>
                <path d="M59.2179222,18.6260769 C59.0939222,18.5972308 59.0158481,18.4726154 59.0445519,18.348 L61.3351074,8.223 C61.6554407,6.80261538 60.7679222,5.38569231 59.3545519,5.06261538 C57.9423296,4.73953846 56.5312556,5.63146154 56.2097741,7.05184615 C56.1810704,7.17646154 56.0570704,7.25607692 55.9342185,7.22723077 C55.8090704,7.19838462 55.7309963,7.07376923 55.7597,6.94915385 C56.1362926,5.28069231 57.7953667,4.23069231 59.456737,4.61030769 C61.1169593,4.98992308 62.1617741,6.65607692 61.7840333,8.32569231 L59.4934778,18.4506923 C59.4659222,18.5753077 59.3419222,18.6537692 59.2179222,18.6260769" id="Fill-29" fill="#156E96"></path>
                <path d="M59.2179222,18.6260769 C59.0939222,18.5972308 59.0158481,18.4726154 59.0445519,18.348 L61.3351074,8.223 C61.6554407,6.80261538 60.7679222,5.38569231 59.3545519,5.06261538 C57.9423296,4.73953846 56.5312556,5.63146154 56.2097741,7.05184615 C56.1810704,7.17646154 56.0570704,7.25607692 55.9342185,7.22723077 C55.8090704,7.19838462 55.7309963,7.07376923 55.7597,6.94915385 C56.1362926,5.28069231 57.7953667,4.23069231 59.456737,4.61030769 C61.1169593,4.98992308 62.1617741,6.65607692 61.7840333,8.32569231 L59.4934778,18.4506923 C59.4659222,18.5753077 59.3419222,18.6537692 59.2179222,18.6260769 L59.2179222,18.6260769 Z" id="Stroke-31" stroke="#156E96"></path>
                <path d="M44.9905296,34.3122692 C44.8665296,34.2845769 44.7884556,34.1599615 44.8171593,34.0341923 C45.0881222,32.8353462 46.8436407,32.5284231 48.7024926,32.2030385 C50.2042704,31.9399615 51.7577148,31.6688077 52.347863,30.9291923 C53.6257519,29.3311154 55.602863,20.6011154 55.6223815,20.5122692 C56.0001222,18.8426538 57.6591963,17.7938077 59.3194185,18.1734231 C59.4445667,18.2011154 59.5214926,18.3257308 59.493937,18.4515 C59.4652333,18.5749615 59.3423815,18.6545769 59.2183815,18.6257308 C57.8050111,18.3026538 56.393937,19.1957308 56.0724556,20.6149615 C55.990937,20.9784231 54.0517148,29.5399615 52.7083815,31.2199615 C52.0080111,32.0957308 50.3684556,32.3830385 48.7817148,32.6599615 C47.1536407,32.9449615 45.4704556,33.2391923 45.2672333,34.1380385 C45.2385296,34.2626538 45.1145296,34.3411154 44.9905296,34.3122692" id="Fill-33" fill="#156E96"></path>
                <path d="M44.9905296,34.3122692 C44.8665296,34.2845769 44.7884556,34.1599615 44.8171593,34.0341923 C45.0881222,32.8353462 46.8436407,32.5284231 48.7024926,32.2030385 C50.2042704,31.9399615 51.7577148,31.6688077 52.347863,30.9291923 C53.6257519,29.3311154 55.602863,20.6011154 55.6223815,20.5122692 C56.0001222,18.8426538 57.6591963,17.7938077 59.3194185,18.1734231 C59.4445667,18.2011154 59.5214926,18.3257308 59.493937,18.4515 C59.4652333,18.5749615 59.3423815,18.6545769 59.2183815,18.6257308 C57.8050111,18.3026538 56.393937,19.1957308 56.0724556,20.6149615 C55.990937,20.9784231 54.0517148,29.5399615 52.7083815,31.2199615 C52.0080111,32.0957308 50.3684556,32.3830385 48.7817148,32.6599615 C47.1536407,32.9449615 45.4704556,33.2391923 45.2672333,34.1380385 C45.2385296,34.2626538 45.1145296,34.3411154 44.9905296,34.3122692 L44.9905296,34.3122692 Z" id="Stroke-35" stroke="#156E96"></path>
                <path d="M43.1976963,44.1814615 C36.1446222,42.5706923 31.7116222,35.493 33.3167333,28.4060769 C33.3247704,28.3622308 33.3362519,28.3183846 33.3488815,28.2756923 C33.3672519,28.2041538 33.3856222,28.1372308 33.3925111,28.0737692 L33.3936593,28.0587692 L37.2571778,10.9772308 C37.6349185,9.30761538 39.2951407,8.25876923 40.955363,8.63838462 C42.6167333,9.01684615 43.6615481,10.6841538 43.2838074,12.3549231 L40.7326222,23.6326154 C40.7039185,23.7572308 40.5799185,23.8356923 40.4547704,23.808 C40.3307704,23.7791538 40.2538444,23.6545385 40.2814,23.5299231 L42.8337333,12.2510769 C43.1552148,10.8306923 42.2654,9.41261538 40.8531778,9.08953846 C39.4409556,8.76761538 38.0298815,9.66069231 37.7084,11.0810769 L33.8494741,28.1360769 C33.8402889,28.2306923 33.8161778,28.3160769 33.794363,28.3968462 C33.7840296,28.4349231 33.7748444,28.4706923 33.7656593,28.5087692 C32.2179556,35.3464615 36.4959556,42.1737692 43.2998815,43.728 C50.0865852,45.2787692 56.8664,40.9783846 58.4129556,34.1395385 C58.4313259,34.0633846 58.4496963,33.9872308 58.4680667,33.9110769 C58.4795481,33.8672308 58.4887333,33.8233846 58.5002148,33.7818462 L58.4944741,33.7806923 L61.1972148,21.7864615 C61.5186963,20.3660769 60.6311778,18.9491538 59.2178074,18.6260769 C59.0938074,18.5972308 59.0157333,18.4726154 59.044437,18.348 C59.0719926,18.2233846 59.1959926,18.1449231 59.3199926,18.1726154 C60.981363,18.5522308 62.0250296,20.2195385 61.648437,21.8891538 L59.0157333,33.5695385 C58.9904741,33.7253077 58.9525852,33.8764615 58.9169926,34.023 C58.8997704,34.0956923 58.8814,34.1683846 58.8653259,34.2433846 C57.261363,41.3303077 50.2324,45.7887692 43.1976963,44.1814615" id="Fill-37" fill="#156E96"></path>
                <path d="M43.1976963,44.1814615 C36.1446222,42.5706923 31.7116222,35.493 33.3167333,28.4060769 C33.3247704,28.3622308 33.3362519,28.3183846 33.3488815,28.2756923 C33.3672519,28.2041538 33.3856222,28.1372308 33.3925111,28.0737692 L33.3936593,28.0587692 L37.2571778,10.9772308 C37.6349185,9.30761538 39.2951407,8.25876923 40.955363,8.63838462 C42.6167333,9.01684615 43.6615481,10.6841538 43.2838074,12.3549231 L40.7326222,23.6326154 C40.7039185,23.7572308 40.5799185,23.8356923 40.4547704,23.808 C40.3307704,23.7791538 40.2538444,23.6545385 40.2814,23.5299231 L42.8337333,12.2510769 C43.1552148,10.8306923 42.2654,9.41261538 40.8531778,9.08953846 C39.4409556,8.76761538 38.0298815,9.66069231 37.7084,11.0810769 L33.8494741,28.1360769 C33.8402889,28.2306923 33.8161778,28.3160769 33.794363,28.3968462 C33.7840296,28.4349231 33.7748444,28.4706923 33.7656593,28.5087692 C32.2179556,35.3464615 36.4959556,42.1737692 43.2998815,43.728 C50.0865852,45.2787692 56.8664,40.9783846 58.4129556,34.1395385 C58.4313259,34.0633846 58.4496963,33.9872308 58.4680667,33.9110769 C58.4795481,33.8672308 58.4887333,33.8233846 58.5002148,33.7818462 L58.4944741,33.7806923 L61.1972148,21.7864615 C61.5186963,20.3660769 60.6311778,18.9491538 59.2178074,18.6260769 C59.0938074,18.5972308 59.0157333,18.4726154 59.044437,18.348 C59.0719926,18.2233846 59.1959926,18.1449231 59.3199926,18.1726154 C60.981363,18.5522308 62.0250296,20.2195385 61.648437,21.8891538 L59.0157333,33.5695385 C58.9904741,33.7253077 58.9525852,33.8764615 58.9169926,34.023 C58.8997704,34.0956923 58.8814,34.1683846 58.8653259,34.2433846 C57.261363,41.3303077 50.2324,45.7887692 43.1976963,44.1814615 L43.1976963,44.1814615 Z" id="Stroke-39" stroke="#156E96"></path>
            </g>
        </g>
    </g>
</svg>