<?xml version="1.0" encoding="UTF-8" standalone="no"?>
<svg width="44px" height="50px" viewBox="0 0 44 50" version="1.1" xmlns="http://www.w3.org/2000/svg" xmlns:xlink="http://www.w3.org/1999/xlink">
    <!-- Generator: Sketch 40.3 (33839) - http://www.bohemiancoding.com/sketch -->
    <title>Wholesale</title>
    <desc>Created with Sketch.</desc>
    <defs>
        <polygon id="path-1" points="0 49.2307692 43.482807 49.2307692 43.482807 0.693846154 0 0.693846154"></polygon>
    </defs>
    <g id="Page-1" stroke="none" stroke-width="1" fill="none" fill-rule="evenodd">
        <g id="Wholesale">
            <path d="M17.8161404,39.6086154 L10.989193,35.6693846 C10.5924211,35.4401538 10.0829474,35.5755385 9.85291228,35.9709231 C9.62287719,36.3670769 9.75873684,36.874 10.1562807,37.104 L16.9824561,41.0432308 C17.1136842,41.1186154 17.2572632,41.1547692 17.3985263,41.1547692 C17.6856842,41.1547692 17.9651228,41.0063077 18.1195088,40.7409231 C18.3495439,40.3455385 18.2136842,39.8378462 17.8161404,39.6086154" id="Fill-1" fill="#004b87"></path>
            <g id="Group-5" transform="translate(0.000000, 0.075692)">
                <mask id="mask-2" fill="white">
                    <use xlink:href="#path-1"></use>
                </mask>
                <g id="Clip-4"></g>
                <path d="M37.3830947,28.7302308 C37.3113053,28.7625385 37.2433754,28.8017692 37.1808491,28.8471538 L27.282393,34.5386923 L23.9067439,28.7471538 L37.4294105,20.9571538 L40.8050596,26.7625385 L37.3830947,28.7302308 Z M36.7099719,38.5502308 L32.0915158,41.2094615 L32.0915158,38.3156154 C32.0915158,38.3140769 32.0907439,38.3133077 32.0907439,38.3117692 C32.0907439,38.3071538 32.0892,38.3033077 32.0884281,38.2986923 C32.0868842,38.2948462 32.0861123,38.2902308 32.0837965,38.2863846 C32.0830246,38.2848462 32.0830246,38.2833077 32.0822526,38.2825385 C32.0814807,38.2802308 32.078393,38.2786923 32.0768491,38.2763846 C32.0745333,38.2725385 32.0714456,38.2694615 32.067586,38.2656154 C32.0644982,38.2633077 32.0614105,38.2617692 32.0575509,38.2594615 C32.0544632,38.2571538 32.0506035,38.2548462 32.0459719,38.2533077 C32.0421123,38.2517692 32.0374807,38.2517692 32.0328491,38.251 C32.0297614,38.2502308 32.0282175,38.2494615 32.0251298,38.2494615 C32.023586,38.2494615 32.022814,38.2502308 32.0212702,38.2502308 C32.0166386,38.2502308 32.012007,38.2517692 32.0081474,38.2525385 C32.0035158,38.2540769 31.9988842,38.2548462 31.9957965,38.2571538 C31.9942526,38.2579231 31.9927088,38.2579231 31.9919368,38.2586923 L28.1430947,40.4794615 C28.140007,40.481 28.1392351,40.4833077 28.1369193,40.4848462 C28.1330596,40.4879231 28.1299719,40.491 28.1268842,40.4940769 C28.1237965,40.4971538 28.1214807,40.501 28.1199368,40.5048462 C28.1176211,40.5086923 28.1153053,40.5117692 28.1137614,40.5156154 C28.1122175,40.5202308 28.1122175,40.5248462 28.1114456,40.5294615 C28.1106737,40.5317692 28.1099018,40.5340769 28.1099018,40.5371538 L28.1099018,43.5017692 L23.4906737,46.1602308 L23.4906737,32.5225385 L25.8921474,36.6433077 C26.1021123,37.0033077 26.4811298,37.2048462 26.8709544,37.2048462 C27.0631649,37.2048462 27.2576912,37.1556154 27.4352351,37.0533077 L36.7099719,31.7202308 L36.7099719,38.5502308 Z M6.94667368,31.0786923 L17.2804982,37.0517692 L17.2812702,37.0517692 C17.3932,37.1163846 17.5113053,37.1594615 17.6317263,37.1833077 L17.6317263,37.1833077 C17.6803579,37.1925385 17.7282175,37.1994615 17.7760772,37.2025385 C17.800007,37.2040769 17.8239368,37.2048462 17.8478667,37.2048462 C17.8725684,37.2048462 17.8972702,37.2040769 17.9212,37.2025385 C17.9929895,37.1971538 18.064007,37.1863846 18.1334807,37.1679231 C18.1342526,37.1679231 18.1350246,37.1679231 18.1357965,37.1671538 C18.1790246,37.1563846 18.2207088,37.1425385 18.2616211,37.1263846 L18.2739719,37.1217692 C18.2940421,37.1133077 18.3141123,37.1048462 18.3341825,37.0956154 C18.3364982,37.0948462 18.338814,37.0940769 18.3411298,37.0925385 C18.3565684,37.0848462 18.372007,37.0763846 18.3874456,37.0679231 C18.3928491,37.0648462 18.3997965,37.0625385 18.4052,37.0586923 C18.4175509,37.0525385 18.4283579,37.0448462 18.4399368,37.0379231 C18.4492,37.0317692 18.4592351,37.0271538 18.4684982,37.021 C18.4746737,37.0163846 18.4816211,37.011 18.4885684,37.0063846 C18.5024632,36.9979231 18.515586,36.9886923 18.5287088,36.9786923 C18.5302526,36.9779231 18.5317965,36.9763846 18.5333404,36.9748462 C18.5510947,36.961 18.5688491,36.9471538 18.5858316,36.9325385 C18.5858316,36.9325385 18.5866035,36.9317692 18.5873754,36.9317692 C18.6807789,36.8517692 18.7618316,36.7548462 18.8274456,36.6433077 L21.2289193,32.5225385 L21.2289193,46.1571538 L6.94667368,37.9094615 L6.94667368,31.0786923 Z M6.22646316,20.3156154 L20.8136211,28.7463846 L17.4387439,34.5371538 L6.45418246,28.1879231 C6.41095439,28.1586923 6.36541053,28.1325385 6.31832281,28.1094615 L2.85158596,26.1056154 L6.22646316,20.3156154 Z M26.2024632,3.63869231 L40.8066035,12.0702308 L37.4301825,17.8771538 L22.8260421,9.44561538 L26.2024632,3.63869231 Z M6.22723509,17.2356154 L2.67790175,11.1348462 L16.1997965,3.35946154 L19.7344632,9.44484615 L6.22723509,17.2356154 Z M22.3605684,27.0348462 L8.07137544,18.7763846 L21.2798667,11.1579231 L35.5829544,19.4163846 L22.3605684,27.0348462 Z M43.330814,26.6094615 L39.1484982,19.4171538 L43.330814,12.2248462 C43.4805684,11.9671538 43.5222526,11.6594615 43.4450596,11.3702308 C43.3678667,11.081 43.1787439,10.8348462 42.9186035,10.6848462 L26.3576211,1.12253846 C25.8172702,0.811 25.1248491,0.994076923 24.8114456,1.53330769 L21.2806386,7.60638462 L17.5931298,1.25792308 L17.5923579,1.25715385 L17.5923579,1.25638462 L17.591586,1.25561538 C17.5892702,1.25253846 17.5869544,1.24946154 17.5854105,1.24561538 C17.5676561,1.21561538 17.5491298,1.18638462 17.5290596,1.15946154 C17.5259719,1.15561538 17.5236561,1.15253846 17.5213404,1.14946154 C17.5004982,1.12176923 17.4796561,1.09561538 17.4580421,1.071 C17.4541825,1.06715385 17.4495509,1.06330769 17.4456912,1.05869231 C17.4248491,1.03561538 17.4024632,1.01253846 17.3793053,0.991 C17.3739018,0.986384615 17.3677263,0.981769231 17.3623228,0.977153846 C17.3399368,0.957153846 17.3175509,0.938692308 17.294393,0.921 C17.2866737,0.914846154 17.2781825,0.909461538 17.2696912,0.904076923 C17.2480772,0.888692308 17.2264632,0.873307692 17.2040772,0.859461538 C17.1924982,0.852538462 17.1809193,0.847153846 17.1701123,0.841 C17.1492702,0.829461538 17.1292,0.817153846 17.1083579,0.807153846 C17.0944632,0.800230769 17.0813404,0.795615385 17.0674456,0.789461538 C17.0481474,0.781 17.0280772,0.771769231 17.008007,0.764846154 C16.9917965,0.758692308 16.974814,0.754076923 16.9586035,0.748692308 C16.9408491,0.742538462 16.9230947,0.736384615 16.9053404,0.731769231 C16.8860421,0.726384615 16.8667439,0.723307692 16.8482175,0.719461538 C16.8312351,0.715615385 16.8150246,0.711769231 16.798814,0.708692308 C16.7772,0.704846154 16.755586,0.703307692 16.7339719,0.701 C16.7193053,0.699461538 16.7054105,0.697153846 16.6915158,0.696384615 C16.6683579,0.694076923 16.6444281,0.694846154 16.6212702,0.694076923 C16.6081474,0.694076923 16.5950246,0.693307692 16.5819018,0.693307692 C16.5579719,0.694076923 16.5340421,0.697153846 16.5101123,0.699461538 C16.4977614,0.700230769 16.4854105,0.700230769 16.4730596,0.701769231 C16.4499018,0.704846154 16.4275158,0.709461538 16.4043579,0.713307692 C16.3904632,0.716384615 16.3773404,0.717923077 16.3634456,0.720230769 C16.3433754,0.725615385 16.3225333,0.731769231 16.3016912,0.737923077 C16.2862526,0.742538462 16.270814,0.745615385 16.2553754,0.750230769 C16.2391649,0.756384615 16.2229544,0.763307692 16.2067439,0.769461538 C16.1874456,0.777153846 16.1689193,0.783307692 16.1496211,0.791769231 C16.139586,0.797153846 16.1295509,0.802538462 16.1195158,0.807153846 C16.095586,0.819461538 16.0708842,0.830230769 16.0469544,0.844076923 L0.565901754,9.74715385 L0.564357895,9.74792308 L0.563585965,9.74792308 C0.552007018,9.75484615 0.5412,9.76253846 0.530392982,9.76946154 C0.508778947,9.78330769 0.487164912,9.79561538 0.467094737,9.81023077 C0.455515789,9.81946154 0.443936842,9.82869231 0.432357895,9.83792308 C0.413831579,9.85176923 0.395305263,9.86638462 0.378322807,9.881 C0.36674386,9.89176923 0.355936842,9.90330769 0.344357895,9.91484615 C0.329691228,9.92946154 0.313480702,9.94407692 0.298814035,9.95946154 C0.287235088,9.97176923 0.2772,9.98561538 0.266392982,9.99792308 C0.253270175,10.0133077 0.240147368,10.0279231 0.227796491,10.0440769 C0.217761404,10.0579231 0.207726316,10.0733077 0.197691228,10.0879231 C0.186884211,10.1033077 0.176077193,10.1186923 0.166814035,10.1340769 C0.156778947,10.1502308 0.149059649,10.1663846 0.139796491,10.1825385 C0.131305263,10.1979231 0.121270175,10.2133077 0.114322807,10.2294615 C0.105831579,10.2463846 0.0996561404,10.2640769 0.0919368421,10.281 C0.0849894737,10.2971538 0.0772701754,10.3125385 0.0710947368,10.3294615 C0.0649192982,10.3463846 0.0602877193,10.3640769 0.0548842105,10.381 C0.0487087719,10.3979231 0.0425333333,10.4148462 0.0386736842,10.4325385 C0.0340421053,10.4494615 0.030954386,10.4663846 0.0270947368,10.4840769 C0.0232350877,10.5017692 0.0186035088,10.5202308 0.0155157895,10.5379231 C0.0124280702,10.5548462 0.0108842105,10.5717692 0.00856842105,10.5886923 C0.0070245614,10.6079231 0.00393684211,10.6263846 0.00239298246,10.6456154 C0.00162105263,10.6617692 0.00162105263,10.6786923 0.00162105263,10.6948462 C0.000849122807,10.7148462 -0.000694736842,10.7340769 7.71929826e-05,10.7540769 C0.000849122807,10.7702308 0.00239298246,10.7856154 0.00393684211,10.801 C0.00548070175,10.8217692 0.00625263158,10.8425385 0.00856842105,10.8633077 C0.0101122807,10.8779231 0.0132,10.8933077 0.0162877193,10.9071538 C0.0193754386,10.9286923 0.0224631579,10.951 0.0270947368,10.9725385 C0.030954386,10.9863846 0.0355859649,11.001 0.039445614,11.0156154 C0.0456210526,11.0371538 0.0502526316,11.0579231 0.0572,11.0794615 C0.0626035088,11.0933077 0.0687789474,11.1071538 0.0734105263,11.121 C0.0819017544,11.1425385 0.0896210526,11.1640769 0.0988842105,11.1848462 C0.105059649,11.1979231 0.112007018,11.2102308 0.118182456,11.2225385 C0.128989474,11.2440769 0.139024561,11.2656154 0.151375439,11.2863846 C0.151375439,11.2871538 0.152147368,11.2879231 0.152147368,11.2879231 L0.152147368,11.2886923 L4.50814737,18.7748462 L0.327375439,25.9494615 C0.176077193,26.2079231 0.135164912,26.5156154 0.212357895,26.8048462 C0.288778947,27.0933077 0.477901754,27.3402308 0.738042105,27.4902308 L4.6849193,29.7717692 L4.6849193,38.5586923 C4.6849193,38.961 4.89951579,39.3325385 5.24842807,39.5340769 L21.7754456,49.0786923 C21.9537614,49.1817692 22.1490596,49.231 22.3412702,49.231 C22.3459018,49.231 22.3505333,49.2302308 22.3551649,49.2302308 L22.3597965,49.2302308 L22.3644281,49.2302308 C22.3690596,49.2302308 22.3736912,49.231 22.3783228,49.231 C22.5705333,49.231 22.7650596,49.1817692 22.9426035,49.0794615 L38.4074456,40.1763846 C38.7571298,39.9756154 38.9724982,39.6033077 38.9724982,39.201 L38.9724982,30.4194615 L42.9170596,28.151 C43.1772,28.0017692 43.3670947,27.7548462 43.4450596,27.4656154 C43.5222526,27.1763846 43.4813404,26.8686923 43.330814,26.6094615 L43.330814,26.6094615 Z" id="Fill-3" fill="#004b87" mask="url(#mask-2)"></path>
            </g>
        </g>
    </g>
</svg>