<?xml version="1.0" encoding="UTF-8" standalone="no"?>
<svg width="48px" height="49px" viewBox="0 0 48 49" version="1.1" xmlns="http://www.w3.org/2000/svg" xmlns:xlink="http://www.w3.org/1999/xlink">
    <!-- Generator: Sketch 40.3 (33839) - http://www.bohemiancoding.com/sketch -->
    <title>Construction</title>
    <desc>Created with Sketch.</desc>
    <defs>
        <polygon id="path-1" points="0.000363636364 48.119015 47.8839051 48.119015 47.8839051 0.709575923 0.000363636364 0.709575923 0.000363636364 48.119015"></polygon>
    </defs>
    <g id="Page-1" stroke="none" stroke-width="1" fill="none" fill-rule="evenodd">
        <g id="Construction-&amp;-Real-Estate" transform="translate(-114.000000, -17.000000)">
            <g id="Construction" transform="translate(114.000000, 17.000000)">
                <g id="Group-3" transform="translate(0.000000, 0.008690)">
                    <mask id="mask-2" fill="white">
                        <use xlink:href="#path-1"></use>
                    </mask>
                    <g id="Clip-2"></g>
                    <path d="M41.9050909,31.1668297 C40.9829091,31.0698735 40.1625455,30.557801 39.708,29.7957969 L39.708,29.7957969 L38.5254545,27.8128625 C41.0752727,27.1032866 43.3443636,25.5950787 44.9727273,23.5144699 C45.0032727,23.5159063 45.0338182,23.5173427 45.0650909,23.5173427 C45.0927273,23.5173427 45.1203636,23.5166245 45.148,23.5159063 L45.6090909,27.45592 L45.6090909,27.4566382 L45.6090909,27.4573564 C45.708,28.2947709 45.4418182,29.123567 44.8789091,29.7318776 L44.3690909,30.2561594 C44.3661818,30.2590321 44.364,30.2626231 44.3610909,30.2654959 C44.3581818,30.2683687 44.3545455,30.2712415 44.3516364,30.2741142 C43.7421818,30.9298256 42.828,31.2630677 41.9050909,31.1668297 L41.9050909,31.1668297 Z M26.1341818,16.4955575 L26.1341818,16.4955575 L26.1341818,16.4962756 L26.1327273,16.4969938 C25.7123636,16.8029446 25.3618182,17.1943605 25.1189091,17.628868 C25.1189091,17.628868 25.1181818,17.6295862 25.1181818,17.6303044 C25.1174545,17.6310226 25.1174545,17.6310226 25.1174545,17.6317408 L24.0985455,19.4660089 C23.7487273,19.2290048 23.3276364,19.0961389 22.8825455,19.0961389 L22.0149091,19.0961389 L23.3218182,16.2384439 C23.3218182,16.2384439 23.3218182,16.2377257 23.3225455,16.2377257 L23.3225455,16.2370075 C23.5683636,15.6976436 23.9690909,15.2537996 24.4818182,14.952158 L24.4825455,14.952158 L35.9152727,8.23704172 L36.3283636,9.07086525 L26.1341818,16.4955575 Z M10.7261818,37.9358105 L19.6432727,37.9358105 L19.6432727,36.721344 L10.7261818,36.721344 L10.7261818,37.9358105 Z M31.5327273,43.0163167 C31.5327273,44.6020896 30.2490909,45.8926847 28.6709091,45.8926847 L28.6621818,45.8926847 L28.6534545,45.8926847 L5.19963636,45.8926847 C3.59963636,45.8926847 2.29854545,44.6020896 2.29854545,43.0163167 C2.29854545,41.4427531 3.59963636,40.1614945 5.19963636,40.1614945 L28.6534545,40.1614945 C30.2418182,40.1614945 31.5327273,41.4427531 31.5327273,43.0163167 L31.5327273,43.0163167 Z M4.15454545,28.8075616 L15.5269091,28.8075616 L15.5269091,30.1886491 C15.5269091,31.8936423 16.9312727,33.2797572 18.6578182,33.2797572 L26.5894545,33.2797572 L26.5894545,34.4949419 L2.25418182,34.4949419 L2.25418182,30.6827668 C2.25418182,29.6492852 3.10654545,28.8075616 4.15454545,28.8075616 L4.15454545,28.8075616 Z M17.7814545,24.5378967 L17.7814545,21.3232592 L20.2636364,21.3232592 C20.2650909,21.3232592 20.2672727,21.3239774 20.2687273,21.3239774 C20.2709091,21.3239774 20.2738182,21.3232592 20.276,21.3232592 L22.8221818,21.3232592 L23.2316364,21.9646067 C23.2730909,22.054381 23.3261818,22.1384097 23.3916364,22.2152565 L24.8752727,24.5378967 L17.7814545,24.5378967 Z M18.6578182,31.0540732 C18.1661818,31.0540732 17.7814545,30.6734302 17.7814545,30.1886491 L17.7814545,26.7642989 L26.2978182,26.7642989 L26.5894545,27.2225068 L26.5894545,31.0540732 L18.6578182,31.0540732 Z M38.0243636,2.94107729 C38.2505455,2.90804036 38.4963636,3.04665185 38.5749091,3.24918263 L45.3472727,20.9260978 L45.3472727,20.926816 C45.3705455,20.9857079 45.3647273,21.0503454 45.3378182,21.1092373 C45.2890909,21.1530472 45.2454545,21.1997298 45.2054545,21.2500034 C45.1945455,21.2564672 45.1850909,21.2629309 45.1734545,21.2679583 C45.0389091,21.3254138 44.8883636,21.2701129 44.8236364,21.1394015 L44.8229091,21.1394015 L38.7916364,8.97534542 C38.7778182,8.94374487 38.7625455,8.91286252 38.7450909,8.88198016 L37.6156364,6.6024316 L37.6149091,6.60171341 C37.5,6.37117305 37.4483636,6.11190492 37.4658182,5.85335499 L37.6403636,3.38348495 L37.6403636,3.38204856 L37.6403636,3.38061218 C37.6549091,3.1529446 37.8134545,2.97267784 38.0243636,2.94107729 L38.0243636,2.94107729 Z M47.8483636,27.1995246 L47.8483636,27.1988064 L47.2709091,22.2633755 C47.6425455,21.6363919 47.7341818,20.8621785 47.4570909,20.1396751 L47.4570909,20.1389569 L40.6832727,2.46132353 L40.6832727,2.46060534 C40.228,1.27486662 38.9705455,0.550926813 37.692,0.739093707 C36.4250909,0.925824213 35.4789091,1.94853283 35.3909091,3.2276368 C35.3909091,3.22835499 35.3909091,3.22907319 35.3901818,3.22979138 L35.3901818,3.23266416 L35.2163636,5.7025342 L35.2163636,5.70468878 L35.2163636,5.70612517 C35.2083636,5.82462722 35.2061818,5.94241108 35.2098182,6.06019494 L23.3298182,13.0381703 C23.3290909,13.0381703 23.3290909,13.0388885 23.3290909,13.0388885 C22.4163636,13.5746614 21.7043636,14.3639569 21.2672727,15.3213098 L21.2672727,15.322028 L19.5414545,19.0961389 L17.6563636,19.0961389 C16.4825455,19.0961389 15.5269091,20.0398461 15.5269091,21.1990116 L15.5269091,26.5804412 L5.28254545,26.5804412 L5.28254545,24.4481224 L5.28254545,24.4474042 C5.28181818,23.2875205 4.32618182,22.3452497 3.15309091,22.3452497 L1.47527273,22.3452497 C0.853454545,22.3452497 0.348,22.8436765 0.348,23.4584508 C0.348,24.073225 0.853454545,24.5716518 1.47527273,24.5716518 L3.02727273,24.5716518 L3.02727273,26.7348529 C1.28254545,27.2217886 0.000363636364,28.8068434 0.000363636364,30.6827668 L0.000363636364,34.7233276 L0.000363636364,34.7376915 C0.00109090909,34.7736012 0.00327272727,34.8095109 0.00690909091,34.8447025 C0.119636364,35.9148119 1.03090909,36.7206259 2.12981818,36.7206259 L8.47090909,36.7206259 L8.47090909,37.9358105 L5.19963636,37.9358105 C2.35672727,37.9358105 0.0432727273,40.2146409 0.0432727273,43.0163167 C0.0432727273,45.8302018 2.35672727,48.1190869 5.19963636,48.1190869 L28.6534545,48.1190869 L28.6621818,48.1190869 L28.6709091,48.1190869 C31.4927273,48.1190869 33.788,45.8302018 33.788,43.0163167 C33.788,40.2146409 31.4847273,37.9358105 28.6534545,37.9358105 L21.8978182,37.9358105 L21.8978182,36.7206259 L26.7152727,36.7206259 L26.7261818,36.7206259 C27.8890909,36.7091347 28.8323636,35.7776368 28.844,34.6292442 C28.844,34.624935 28.8447273,34.6227804 28.8447273,34.6184713 L28.8447273,27.1772606 C28.8447273,26.7800992 28.7356364,26.4066382 28.5196364,26.0683687 C28.5196364,26.0683687 28.5189091,26.0676505 28.5189091,26.0669323 L28.5181818,26.0669323 L28.5181818,26.0662141 C28.5181818,26.0662141 28.5174545,26.0662141 28.5174545,26.0654959 L25.5683636,21.4503796 L27.0927273,18.704723 C27.1770909,18.5539022 27.3145455,18.4030814 27.4701818,18.2896067 L27.4709091,18.2888885 C27.4709091,18.2888885 27.4716364,18.2888885 27.4716364,18.2881703 L37.3363636,11.103355 L42.7981818,22.1183003 L42.7981818,22.1190185 C42.8505455,22.224593 42.9094545,22.3237038 42.9734545,22.4177873 C41.5327273,24.1357079 39.5421818,25.3358105 37.332,25.8126915 L36.8985455,25.0858789 C36.5829091,24.5558516 35.8912727,24.379894 35.3545455,24.6915903 C34.8185455,25.0040048 34.6396364,25.6862893 34.9552727,26.2155985 L37.7654545,30.9255164 C37.7654545,30.9262346 37.7661818,30.9262346 37.7661818,30.9262346 C38.5807273,32.2929583 40.0396364,33.2108105 41.668,33.3810226 C41.8512727,33.4004138 42.0345455,33.4097503 42.2163636,33.4097503 C43.6454545,33.4097503 45.0229091,32.8294494 45.9894545,31.803868 C45.9916364,31.8017134 45.9938182,31.800277 45.996,31.7981224 L46.5189091,31.2609131 C46.5218182,31.2573222 46.5247273,31.2537312 46.5269091,31.2508584 L46.5356364,31.2422401 C47.5450909,30.1570486 48.0236364,28.6825958 47.8483636,27.1995246 L47.8483636,27.1995246 Z" id="Fill-1" fill="#004b87" mask="url(#mask-2)"></path>
                </g>
                <path d="M5.18850909,43.6471785 C4.84087273,43.6471785 4.55869091,43.367801 4.55869091,43.0252223 C4.55869091,42.6819254 4.84087273,42.4032661 5.18850909,42.4032661 C5.53614545,42.4032661 5.81832727,42.6819254 5.81832727,43.0252223 C5.81832727,43.367801 5.53614545,43.6471785 5.18850909,43.6471785 M5.18850909,41.0932798 C4.10996364,41.0932798 3.23287273,41.959422 3.23287273,43.0252223 C3.23287273,44.0903044 4.10996364,44.9564466 5.18850909,44.9564466 C6.26705455,44.9564466 7.14487273,44.0903044 7.14487273,43.0252223 C7.14487273,41.959422 6.26705455,41.0932798 5.18850909,41.0932798" id="Fill-4" fill="#004b87"></path>
                <path d="M29.2730182,43.0250787 C29.2730182,43.3683755 28.9901091,43.6470349 28.6432,43.6470349 C28.2955636,43.6470349 28.0133818,43.3683755 28.0133818,43.0250787 C28.0133818,42.6817818 28.2955636,42.4031224 28.6432,42.4031224 C28.9901091,42.4031224 29.2730182,42.6817818 29.2730182,43.0250787 M26.6861091,43.0250787 C26.6861091,44.0901607 27.5639273,44.956303 28.6432,44.956303 C29.7217455,44.956303 30.5988364,44.0901607 30.5988364,43.0250787 C30.5988364,41.9599966 29.7217455,41.0938543 28.6432,41.0938543 C27.5639273,41.0938543 26.6861091,41.9599966 26.6861091,43.0250787" id="Fill-6" fill="#004b87"></path>
                <path d="M13.0656,43.6471785 C12.7179636,43.6471785 12.4365091,43.367801 12.4365091,43.0252223 C12.4365091,42.6819254 12.7179636,42.4032661 13.0656,42.4032661 C13.4139636,42.4032661 13.6954182,42.6819254 13.6954182,43.0252223 C13.6954182,43.367801 13.4139636,43.6471785 13.0656,43.6471785 M13.0656,41.0932798 C11.9877818,41.0932798 11.1099636,41.959422 11.1099636,43.0252223 C11.1099636,44.0903044 11.9877818,44.9571648 13.0656,44.9571648 C14.1441455,44.9571648 15.0219636,44.0903044 15.0219636,43.0252223 C15.0219636,41.959422 14.1441455,41.0932798 13.0656,41.0932798" id="Fill-8" fill="#004b87"></path>
                <path d="M20.8568,43.6471785 C20.5091636,43.6471785 20.2269818,43.367801 20.2269818,43.0252223 C20.2269818,42.6819254 20.5091636,42.4032661 20.8568,42.4032661 C21.2044364,42.4032661 21.4866182,42.6819254 21.4866182,43.0252223 C21.4866182,43.367801 21.2044364,43.6471785 20.8568,43.6471785 M20.8568,41.0932798 C19.7782545,41.0932798 18.9004364,41.959422 18.9004364,43.0252223 C18.9004364,44.0903044 19.7782545,44.9564466 20.8568,44.9564466 C21.9353455,44.9564466 22.8124364,44.0903044 22.8124364,43.0252223 C22.8124364,41.959422 21.9353455,41.0932798 20.8568,41.0932798" id="Fill-10" fill="#004b87"></path>
            </g>
        </g>
    </g>
</svg>