<?xml version="1.0" encoding="UTF-8" standalone="no"?>
<svg width="48px" height="48px" viewBox="0 0 48 48" version="1.1" xmlns="http://www.w3.org/2000/svg" xmlns:xlink="http://www.w3.org/1999/xlink">
    <!-- Generator: Sketch 40.3 (33839) - http://www.bohemiancoding.com/sketch -->
    <title>Manufacturing</title>
    <desc>Created with Sketch.</desc>
    <defs>
        <polygon id="path-1" points="47.4280421 47.4993684 0 47.4993684 0 0.000421052632 47.4280421 0.000421052632 47.4280421 47.4993684"></polygon>
    </defs>
    <g id="Page-1" stroke="none" stroke-width="1" fill="none" fill-rule="evenodd">
        <g id="Manufacturing" transform="translate(-111.000000, -21.000000)">
            <g transform="translate(111.000000, 21.000000)">
                <mask id="mask-2" fill="white">
                    <use xlink:href="#path-1"></use>
                </mask>
                <g id="Clip-2"></g>
                <path d="M11.4652632,30.7650526 L18.0269474,30.7650526 L18.0269474,27.5953684 L11.4652632,27.5953684 L11.4652632,30.7650526 Z M18.256,25.7621053 L11.2362105,25.7621053 C10.3511579,25.7621053 9.632,26.4703158 9.632,27.3418947 L9.632,31.0185263 C9.632,31.8901053 10.3511579,32.5991579 11.2362105,32.5991579 L18.256,32.5991579 C19.1410526,32.5991579 19.8602105,31.8901053 19.8602105,31.0185263 L19.8602105,27.3418947 C19.8602105,26.4703158 19.1410526,25.7621053 18.256,25.7621053 L18.256,25.7621053 Z" id="Fill-1" fill="#004b87" mask="url(#mask-2)"></path>
                <path d="M29.1696842,30.7650526 L35.7313684,30.7650526 L35.7313684,27.5953684 L29.1696842,27.5953684 L29.1696842,30.7650526 Z M35.9604211,25.7621053 L28.9406316,25.7621053 C28.0555789,25.7621053 27.3355789,26.4703158 27.3355789,27.3418947 L27.3355789,31.0185263 C27.3355789,31.8901053 28.0555789,32.5991579 28.9406316,32.5991579 L35.9604211,32.5991579 C36.8454737,32.5991579 37.5646316,31.8901053 37.5646316,31.0185263 L37.5646316,27.3418947 L37.5646316,27.3418947 C37.5637895,26.4703158 36.8446316,25.7621053 35.9604211,25.7621053 L35.9604211,25.7621053 Z" id="Fill-3" fill="#004b87" mask="url(#mask-2)"></path>
                <path d="M4.47983158,15.9298526 L16.3947789,22.4839579 C16.3947789,22.4848 16.3956211,22.4848 16.3956211,22.4848 C16.4032,22.4890105 16.4107789,22.4915368 16.4183579,22.4957474 C16.4394105,22.5066947 16.4604632,22.5168 16.4815158,22.5269053 C16.4916211,22.5311158 16.5008842,22.5353263 16.5109895,22.5395368 C16.5387789,22.5504842 16.5674105,22.5614316 16.5960421,22.5706947 C16.6010947,22.5723789 16.6069895,22.5732211 16.6120421,22.5749053 C16.6398316,22.5833263 16.6684632,22.5909053 16.6970947,22.5968 C16.7021474,22.5976421 16.7072,22.5993263 16.7122526,22.6001684 C16.7459368,22.6069053 16.7796211,22.6119579 16.8133053,22.6153263 C16.8166737,22.6161684 16.8208842,22.6161684 16.8242526,22.6161684 C16.8596211,22.6203789 16.8949895,22.6220632 16.9303579,22.6220632 C16.9648842,22.6220632 16.9994105,22.6203789 17.0330947,22.6170105 L17.0566737,22.6144842 C17.0878316,22.6111158 17.1198316,22.6069053 17.1501474,22.6001684 C17.1585684,22.5984842 17.1661474,22.5968 17.1745684,22.5951158 C17.1973053,22.5892211 17.2200421,22.5833263 17.2427789,22.5774316 C17.2545684,22.5740632 17.2663579,22.5706947 17.2773053,22.5664842 C17.3050947,22.5572211 17.3328842,22.5479579 17.3589895,22.5370105 C17.3674105,22.5336421 17.3749895,22.5294316 17.3825684,22.5260632 C17.4044632,22.5159579 17.4263579,22.5058526 17.4482526,22.4940632 C17.4566737,22.4906947 17.4642526,22.4856421 17.4726737,22.4814316 C17.5299368,22.4502737 17.5838316,22.4132211 17.6343579,22.3719579 C17.6377263,22.3685895 17.6410947,22.3660632 17.6453053,22.3626947 C17.6958316,22.3205895 17.7429895,22.2734316 17.7867789,22.2212211 C17.7901474,22.2170105 17.7935158,22.2119579 17.7968842,22.2077474 C17.8137263,22.1875368 17.8305684,22.1656421 17.8457263,22.1437474 C17.8499368,22.1370105 17.8549895,22.1302737 17.8600421,22.1226947 C17.8760421,22.0982737 17.8920421,22.0721684 17.9072,22.0452211 L17.9080421,22.0435368 C17.9434105,21.9786947 17.9728842,21.9104842 17.9956211,21.8380632 C18.0032,21.8136421 18.0082526,21.7892211 18.0141474,21.7639579 C18.0166737,21.7538526 18.0200421,21.7437474 18.0225684,21.7328 C18.0377263,21.6586947 18.0444632,21.5837474 18.0444632,21.5096421 L18.0444632,21.5088 L18.0444632,15.9298526 L29.9594105,22.4839579 L29.9602526,22.4848 C29.9678316,22.4890105 29.9754105,22.4915368 29.9829895,22.4957474 C30.0040421,22.5066947 30.0250947,22.5168 30.0469895,22.5269053 C30.0570947,22.5311158 30.0655158,22.5353263 30.0756211,22.5395368 C30.1034105,22.5504842 30.1320421,22.5614316 30.1615158,22.5706947 C30.1657263,22.5723789 30.1716211,22.5732211 30.1775158,22.5749053 C30.2053053,22.5833263 30.2339368,22.5909053 30.2625684,22.5968 C30.2676211,22.5976421 30.2718316,22.5993263 30.2777263,22.6001684 C30.3105684,22.6069053 30.3442526,22.6119579 30.3779368,22.6153263 C30.3813053,22.6161684 30.3855158,22.6161684 30.3897263,22.6161684 C30.4250947,22.6203789 30.4604632,22.6220632 30.4958316,22.6220632 C30.5295158,22.6220632 30.5640421,22.6203789 30.5977263,22.6170105 C30.6061474,22.6161684 30.6137263,22.6153263 30.6213053,22.6144842 C30.6533053,22.6111158 30.6853053,22.6069053 30.7156211,22.6001684 C30.7240421,22.5984842 30.7316211,22.5968 30.7392,22.5951158 C30.7619368,22.5892211 30.7855158,22.5833263 30.8082526,22.5774316 C30.8200421,22.5740632 30.8309895,22.5706947 30.8427789,22.5664842 C30.8697263,22.5572211 30.8975158,22.5479579 30.9244632,22.5370105 C30.9328842,22.5336421 30.9396211,22.5294316 30.9472,22.5260632 C30.9699368,22.5159579 30.9918316,22.5058526 31.0128842,22.4940632 C31.0213053,22.4906947 31.0297263,22.4856421 31.0381474,22.4814316 C31.0945684,22.4502737 31.1484632,22.4132211 31.1989895,22.3719579 C31.2032,22.3685895 31.2065684,22.3660632 31.2107789,22.3626947 C31.2604632,22.3205895 31.3084632,22.2734316 31.3522526,22.2212211 C31.3556211,22.2170105 31.3581474,22.2119579 31.3623579,22.2077474 C31.3792,22.1875368 31.3952,22.1656421 31.4103579,22.1437474 C31.4154105,22.1370105 31.4204632,22.1302737 31.4246737,22.1226947 C31.4415158,22.0982737 31.4575158,22.0721684 31.4718316,22.0452211 L31.4726737,22.0435368 C31.5080421,21.9786947 31.5375158,21.9104842 31.5602526,21.8380632 C31.5678316,21.8136421 31.5737263,21.7892211 31.5796211,21.7639579 C31.5821474,21.7538526 31.5855158,21.7437474 31.5872,21.7328 C31.6023579,21.6586947 31.6099368,21.5837474 31.6099368,21.5096421 L31.6099368,21.5088 L31.6099368,16.3340632 L32.4461474,16.7955368 C32.4890947,16.8233263 32.5345684,16.8477474 32.5817263,16.8696421 L41.8036211,21.9568 C41.8583579,21.9938526 41.9173053,22.0258526 41.9787789,22.0528 L42.9312,22.5782737 L42.9320421,22.5791158 C42.9387789,22.5833263 42.9446737,22.5875368 42.9480421,22.5900632 L42.9480421,45.2721684 L4.47983158,45.2721684 L4.47983158,15.9298526 Z M34.9168842,6.92690526 L40.1564632,6.92690526 L41.1467789,19.0506947 L34.2280421,15.2342737 L34.9168842,6.92690526 Z M35.2865684,2.47469474 C35.3093053,2.40311579 35.3244632,2.32816842 35.3312,2.25069474 L35.3345684,2.25069474 L39.7455158,2.25069474 C39.7539368,2.25069474 39.7632,2.24901053 39.7716211,2.24901053 C39.7733053,2.26753684 39.7766737,2.28522105 39.7783579,2.30290526 L39.9745684,4.70037895 L35.1021474,4.70037895 L35.2865684,2.47469474 Z M46.3147789,45.2721684 L45.1754105,45.2721684 L45.1754105,22.5757474 C45.1754105,21.7723789 44.7274105,21.0271158 44.0082526,20.6296421 C44.0082526,20.6296421 44.0074105,20.6288 44.0065684,20.6288 L43.4861474,20.3416421 L41.9930947,2.06627368 C41.9905684,2.02753684 41.9855158,1.98964211 41.9787789,1.95258947 C41.8356211,0.849431579 40.8789895,-0.000252631579 39.7573053,-0.000252631579 C39.6789895,-0.000252631579 39.6023579,0.00816842105 39.5290947,0.0233263158 L35.5745684,0.0233263158 C35.5004632,0.00816842105 35.4246737,-0.000252631579 35.3463579,-0.000252631579 C34.2979368,-0.000252631579 33.3926737,0.742484211 33.1627789,1.74122105 C33.1223579,1.84227368 33.0962526,1.95090526 33.0861474,2.06458947 L32.0907789,14.0553263 L32.0545684,14.0351158 L32.0537263,14.0351158 L32.0537263,14.0351158 C31.4886737,13.7243789 30.8284632,13.7302737 30.2853053,14.0511158 C29.7286737,14.3803789 29.3834105,14.9749053 29.3834105,15.6031158 L29.3834105,19.6250105 L18.4882526,13.6317474 L18.4865684,13.6317474 C17.9232,13.3210105 17.2629895,13.3277474 16.7206737,13.6485895 C16.1640421,13.9770105 15.8179368,14.5715368 15.8179368,15.2005895 L15.8179368,19.6250105 L4.92362105,13.6325895 L4.92362105,13.6317474 L4.92277895,13.6317474 L4.92277895,13.6317474 L4.92193684,13.6317474 C4.35772632,13.3210105 3.69751579,13.3277474 3.15604211,13.6477474 C2.59856842,13.9770105 2.25246316,14.5715368 2.25246316,15.2005895 L2.25246316,45.2721684 L1.11309474,45.2721684 C0.498357895,45.2721684 -0.000168421053,45.7706947 -0.000168421053,46.3862737 C-0.000168421053,47.0010105 0.498357895,47.4995368 1.11309474,47.4995368 L46.3147789,47.4995368 C46.9295158,47.4995368 47.4280421,47.0010105 47.4280421,46.3862737 C47.4280421,45.7706947 46.9295158,45.2721684 46.3147789,45.2721684 L46.3147789,45.2721684 Z" id="Fill-4" fill="#004b87" mask="url(#mask-2)"></path>
                <path d="M11.4652632,40.4644211 L18.0269474,40.4644211 L18.0269474,37.2711579 L11.4652632,37.2711579 L11.4652632,40.4644211 Z M18.256,35.4370526 L11.2362105,35.4370526 C10.3511579,35.4370526 9.632,36.1570526 9.632,37.0421053 L9.632,40.6943158 C9.632,41.5793684 10.3511579,42.2985263 11.2362105,42.2985263 L18.256,42.2985263 C19.1410526,42.2985263 19.8602105,41.5793684 19.8602105,40.6943158 L19.8602105,37.0421053 C19.8602105,36.1570526 19.1410526,35.4370526 18.256,35.4370526 L18.256,35.4370526 Z" id="Fill-5" fill="#004b87" mask="url(#mask-2)"></path>
                <path d="M29.1696842,40.4644211 L35.7313684,40.4644211 L35.7313684,37.2711579 L29.1696842,37.2711579 L29.1696842,40.4644211 Z M35.9604211,35.4370526 L28.9406316,35.4370526 C28.0555789,35.4370526 27.3355789,36.1570526 27.3355789,37.0421053 L27.3355789,40.6943158 C27.3355789,41.5793684 28.0555789,42.2985263 28.9406316,42.2985263 L35.9604211,42.2985263 C36.8454737,42.2985263 37.5646316,41.5793684 37.5646316,40.6943158 L37.5646316,37.0421053 L37.5646316,37.0421053 C37.5637895,36.1570526 36.8446316,35.4370526 35.9604211,35.4370526 L35.9604211,35.4370526 Z" id="Fill-6" fill="#004b87" mask="url(#mask-2)"></path>
            </g>
        </g>
    </g>
</svg>