<?xml version="1.0" encoding="UTF-8" standalone="no"?>
<svg width="47px" height="51px" viewBox="0 0 47 51" version="1.1" xmlns="http://www.w3.org/2000/svg" xmlns:xlink="http://www.w3.org/1999/xlink">
    <!-- Generator: Sketch 40.3 (33839) - http://www.bohemiancoding.com/sketch -->
    <title>Food+beverage</title>
    <desc>Created with Sketch.</desc>
    <defs></defs>
    <g id="Page-1" stroke="none" stroke-width="1" fill="none" fill-rule="evenodd">
        <g id="Food-&amp;-Beverage" transform="translate(-113.000000, -16.000000)">
            <g id="Food+beverage" transform="translate(114.000000, 17.000000)">
                <path d="M8.23813333,27.3548459 C8.93413333,27.3548459 9.50146667,27.9077514 9.50146667,28.5871297 L9.50146667,40.3325622 C9.50146667,41.0245216 8.93413333,41.5866973 8.23813333,41.5866973 L2.4848,41.5866973 L2.4848,27.3548459 L8.23813333,27.3548459 Z M16.9261333,46.5654946 L2.4848,46.5654946 L2.4848,43.4824676 L8.23813333,43.4824676 C9.98746667,43.4824676 11.4101333,42.0700757 11.4101333,40.3325622 L11.4101333,28.5871297 C11.4101333,26.8621973 9.98746667,25.4584135 8.23813333,25.4584135 L2.4848,25.4584135 L2.4848,21.1166162 C2.4848,19.7658054 3.1488,18.3633459 4.2608,17.3648054 C4.2608,17.3641432 4.26146667,17.3641432 4.26146667,17.3634811 C4.98813333,16.7112514 5.4708,15.8782514 5.6568,14.9551973 C5.6568,14.9545351 5.65746667,14.953873 5.65746667,14.9532108 L7.59013333,5.4194 C7.5988,5.37900811 7.6048,5.33861622 7.60946667,5.2969 C7.6128,5.26246757 7.61413333,5.22803514 7.61413333,5.19426486 C7.61413333,5.19029189 7.6148,5.18631892 7.6148,5.18300811 L7.6148,5.18234595 L7.6148,5.17241351 C7.61346667,4.7579 7.54413333,4.31888649 7.08813333,3.89841351 C6.86546667,3.64083243 6.8108,3.26538649 6.95546667,2.95284595 C7.09946667,2.64361622 7.42946667,2.4549 7.7988,2.46880541 C7.8068,2.46880541 7.8148,2.46814324 7.82213333,2.46814324 C7.8308,2.46880541 7.8388,2.46946757 7.8468,2.46946757 L11.5641333,2.46946757 C11.7581333,2.46946757 12.2314667,2.51648108 12.4334667,2.95284595 C12.5828,3.27598108 12.5201333,3.66599459 12.2781333,3.92423784 C12.2761333,3.92688649 12.2741333,3.92953514 12.2721333,3.93152162 L12.2661333,3.93748108 C12.1554667,4.05865676 12.0641333,4.19307568 11.9928,4.3361027 L9.53346667,4.3361027 C9.0628,4.3361027 8.68146667,4.71552162 8.68146667,5.18300811 C8.68146667,5.65049459 9.0628,6.02991351 9.53346667,6.02991351 L11.9648,6.02991351 L13.7528,14.9512243 L13.7528,14.9518865 C13.9421333,15.8914946 14.4168,16.7251568 15.1268,17.3634811 C15.1274667,17.3634811 15.1274667,17.3641432 15.1281333,17.3641432 C16.2708,18.3904946 16.9261333,19.7578595 16.9261333,21.1166162 L16.9261333,46.5654946 Z M16.6828,15.656427 L16.6828,15.656427 C16.3448,15.3524946 16.1174667,14.9532108 16.0268,14.5016162 L16.0268,14.5009541 L14.1741333,5.25783243 C14.8814667,4.33279189 15.0341333,3.05812973 14.5401333,1.99072432 C14.0188,0.865710811 12.8788,0.166467568 11.5641333,0.166467568 L7.85213333,0.166467568 C6.5588,0.130048649 5.38146667,0.841872973 4.84946667,1.99072432 C4.34746667,3.07534595 4.5128,4.37450811 5.24946667,5.30153514 L3.3848,14.4989676 L3.3848,14.4996297 C3.3848,14.5002919 3.38413333,14.5002919 3.38413333,14.5009541 C3.2968,14.9373189 3.06213333,15.3372649 2.70613333,15.656427 L2.70613333,15.6570892 C1.09213333,17.1059 0.1668,19.0963595 0.1668,21.1166162 L0.1668,46.6370081 C0.1668,47.8673054 1.18346667,48.8678324 2.43413333,48.8678324 L16.9768,48.8678324 C18.2268,48.8678324 19.2441333,47.8673054 19.2441333,46.6370081 L19.2441333,21.1166162 C19.2441333,19.1089405 18.3108,17.1184811 16.6828,15.656427 L16.6828,15.656427 Z" id="Fill-1" fill="#004b87"></path>
                <path d="M8.23813333,27.3548459 C8.93413333,27.3548459 9.50146667,27.9077514 9.50146667,28.5871297 L9.50146667,40.3325622 C9.50146667,41.0245216 8.93413333,41.5866973 8.23813333,41.5866973 L2.4848,41.5866973 L2.4848,27.3548459 L8.23813333,27.3548459 L8.23813333,27.3548459 Z M16.9261333,46.5654946 L2.4848,46.5654946 L2.4848,43.4824676 L8.23813333,43.4824676 C9.98746667,43.4824676 11.4101333,42.0700757 11.4101333,40.3325622 L11.4101333,28.5871297 C11.4101333,26.8621973 9.98746667,25.4584135 8.23813333,25.4584135 L2.4848,25.4584135 L2.4848,21.1166162 C2.4848,19.7658054 3.1488,18.3633459 4.2608,17.3648054 C4.2608,17.3641432 4.26146667,17.3641432 4.26146667,17.3634811 C4.98813333,16.7112514 5.4708,15.8782514 5.6568,14.9551973 C5.6568,14.9545351 5.65746667,14.953873 5.65746667,14.9532108 L7.59013333,5.4194 C7.5988,5.37900811 7.6048,5.33861622 7.60946667,5.2969 C7.6128,5.26246757 7.61413333,5.22803514 7.61413333,5.19426486 C7.61413333,5.19029189 7.6148,5.18631892 7.6148,5.18300811 L7.6148,5.18234595 L7.6148,5.17241351 C7.61346667,4.7579 7.54413333,4.31888649 7.08813333,3.89841351 C6.86546667,3.64083243 6.8108,3.26538649 6.95546667,2.95284595 C7.09946667,2.64361622 7.42946667,2.4549 7.7988,2.46880541 C7.8068,2.46880541 7.8148,2.46814324 7.82213333,2.46814324 C7.8308,2.46880541 7.8388,2.46946757 7.8468,2.46946757 L11.5641333,2.46946757 C11.7581333,2.46946757 12.2314667,2.51648108 12.4334667,2.95284595 C12.5828,3.27598108 12.5201333,3.66599459 12.2781333,3.92423784 C12.2761333,3.92688649 12.2741333,3.92953514 12.2721333,3.93152162 L12.2661333,3.93748108 C12.1554667,4.05865676 12.0641333,4.19307568 11.9928,4.3361027 L9.53346667,4.3361027 C9.0628,4.3361027 8.68146667,4.71552162 8.68146667,5.18300811 C8.68146667,5.65049459 9.0628,6.02991351 9.53346667,6.02991351 L11.9648,6.02991351 L13.7528,14.9512243 L13.7528,14.9518865 C13.9421333,15.8914946 14.4168,16.7251568 15.1268,17.3634811 C15.1274667,17.3634811 15.1274667,17.3641432 15.1281333,17.3641432 C16.2708,18.3904946 16.9261333,19.7578595 16.9261333,21.1166162 L16.9261333,46.5654946 L16.9261333,46.5654946 Z M16.6828,15.656427 L16.6828,15.656427 C16.3448,15.3524946 16.1174667,14.9532108 16.0268,14.5016162 L16.0268,14.5009541 L14.1741333,5.25783243 C14.8814667,4.33279189 15.0341333,3.05812973 14.5401333,1.99072432 C14.0188,0.865710811 12.8788,0.166467568 11.5641333,0.166467568 L7.85213333,0.166467568 C6.5588,0.130048649 5.38146667,0.841872973 4.84946667,1.99072432 C4.34746667,3.07534595 4.5128,4.37450811 5.24946667,5.30153514 L3.3848,14.4989676 L3.3848,14.4996297 C3.3848,14.5002919 3.38413333,14.5002919 3.38413333,14.5009541 C3.2968,14.9373189 3.06213333,15.3372649 2.70613333,15.656427 L2.70613333,15.6570892 C1.09213333,17.1059 0.1668,19.0963595 0.1668,21.1166162 L0.1668,46.6370081 C0.1668,47.8673054 1.18346667,48.8678324 2.43413333,48.8678324 L16.9768,48.8678324 C18.2268,48.8678324 19.2441333,47.8673054 19.2441333,46.6370081 L19.2441333,21.1166162 C19.2441333,19.1089405 18.3108,17.1184811 16.6828,15.656427 L16.6828,15.656427 Z" id="Stroke-3" stroke="#FEFEFE" stroke-width="0.5"></path>
                <path d="M41.1551333,43.2273365 C40.8878,43.7219716 40.5364667,44.1894581 40.2611333,44.5404041 C39.7411333,45.2032284 39.1291333,45.7965257 38.3904667,46.3527419 C37.8231333,46.7791743 36.6798,47.4711338 35.3918,47.312877 C35.0471333,47.2698365 34.6811333,47.1155527 34.3338,46.8652554 C34.1064667,46.7017014 33.8911333,46.5202689 33.7104667,46.3633365 C33.7104667,46.3633365 33.7104667,46.3633365 33.7104667,46.3626743 C33.0271333,45.7389176 31.9824667,45.7369311 31.2971333,46.357377 L31.1971333,46.4374986 C31.1191333,46.5004041 31.0404667,46.5633095 30.9624667,46.6275392 C30.4031333,47.0850932 29.9431333,47.2969851 29.4258,47.3347284 C28.5438,47.4009446 27.5071333,47.0347689 26.5818,46.3308905 C25.7651333,45.7091203 25.0504667,44.9800797 24.4564667,44.1642959 C24.0178,43.5617284 23.6304667,42.88235 23.3358,42.1976743 C22.7658,40.8766608 22.4191333,39.5172419 22.0271333,37.880377 C21.5491333,35.5052014 21.8924667,32.2678905 24.2878,30.2926608 C26.4964667,28.4710527 29.5678,28.1379851 32.1191333,29.4411203 C32.1231333,29.4431068 32.1264667,29.4450932 32.1298,29.4464176 C32.1304667,29.4464176 32.1311333,29.4470797 32.1318,29.4477419 C32.1498,29.4570122 32.1678,29.4656203 32.1858,29.4735662 C32.1904667,29.4755527 32.1951333,29.476877 32.1998,29.4788635 C32.2418,29.4967419 32.2844667,29.5099851 32.3278,29.5199176 C32.3311333,29.5199176 32.3338,29.5205797 32.3364667,29.5212419 C32.3591333,29.5265392 32.3818,29.52985 32.4051333,29.5324986 L32.4058,29.5324986 C32.4271333,29.5351473 32.4491333,29.5364716 32.4711333,29.5371338 L32.4838,29.5371338 C32.4864667,29.5371338 32.4891333,29.5377959 32.4924667,29.5377959 C32.4971333,29.5377959 32.5024667,29.5371338 32.5071333,29.5371338 L32.5118,29.5371338 C32.5238,29.5364716 32.5358,29.5364716 32.5478,29.5351473 C32.5544667,29.5351473 32.5611333,29.533823 32.5678,29.5331608 C32.5711333,29.5331608 32.5738,29.5324986 32.5771333,29.5324986 C32.5798,29.5318365 32.5824667,29.5318365 32.5858,29.5311743 C32.5944667,29.5305122 32.6038,29.5291878 32.6131333,29.5278635 C32.6211333,29.5265392 32.6291333,29.5252149 32.6371333,29.5238905 C32.6418,29.5232284 32.6464667,29.5219041 32.6511333,29.5212419 L32.6664667,29.5172689 C32.6764667,29.5146203 32.6864667,29.5126338 32.6964667,29.5099851 C32.7024667,29.5086608 32.7078,29.5066743 32.7138,29.5046878 C32.7211333,29.5027014 32.7284667,29.5007149 32.7358,29.4980662 C32.7451333,29.4954176 32.7544667,29.4914446 32.7638,29.4881338 C32.7698,29.4854851 32.7751333,29.4834986 32.7811333,29.4815122 C32.7811333,29.48085 32.7818,29.48085 32.7824667,29.48085 C32.7944667,29.4755527 32.8064667,29.4709176 32.8184667,29.4656203 C32.8264667,29.4616473 32.8351333,29.4576743 32.8438,29.4530392 C32.8444667,29.452377 32.8451333,29.452377 32.8464667,29.4517149 C32.8504667,29.4497284 32.8551333,29.4470797 32.8591333,29.4457554 C32.8604667,29.4450932 32.8618,29.4450932 32.8624667,29.4444311 C35.4151333,28.137323 38.4898,28.4697284 40.7004667,30.2926608 C42.7538,31.9858095 43.6471333,34.9602419 42.9764667,37.8704446 C42.8544667,38.3803095 42.7278,38.9067284 42.5904667,39.4265257 C42.1878,40.9521473 41.7318,42.1605932 41.1551333,43.2273365 M41.6811333,29.1193095 C39.4404667,27.2712149 36.4678,26.6845392 33.7431333,27.4632419 C33.8904667,26.5958095 33.8264667,25.6999041 33.5498,24.8576338 C33.5311333,22.4513365 34.8378,20.2628905 36.9818,19.1272824 C39.1578,17.9744581 41.7604667,18.1366878 43.7744667,19.5497419 L43.7744667,19.5504041 C43.7924667,19.5629851 43.7958,19.5941068 43.7964667,19.6066878 C43.9304667,22.0606608 42.6004667,24.38485 40.4098,25.5277419 C40.0344667,25.7224176 39.8904667,26.1839446 40.0871333,26.5567419 C40.2244667,26.8163095 40.4911333,26.9646338 40.7671333,26.9646338 C40.8878,26.9646338 41.0098,26.9361608 41.1238,26.8772284 C43.8444667,25.4582149 45.4951333,22.5725122 45.3298,19.5245797 L45.3298,19.5239176 C45.3024667,19.0286203 45.0584667,18.5843095 44.6604667,18.304877 C44.6604667,18.304877 44.6598,18.304877 44.6598,18.3042149 C43.4458,17.4520122 42.0184667,16.9527419 40.5344667,16.8607014 C39.0498,16.7679986 37.5718,17.0864986 36.2598,17.7817689 C34.9471333,18.4770392 33.8571333,19.5186203 33.1071333,20.7946068 C32.7424667,21.4150527 32.4671333,22.0785392 32.2831333,22.7652014 C31.4458,21.9017419 30.3338,21.3230122 29.1111333,21.1455527 C28.6918,21.0852959 28.3018,21.3733365 28.2404667,21.7898365 C28.1791333,22.2063365 28.4698,22.5937014 28.8891333,22.6546203 C30.1678,22.8393635 31.2791333,23.6339581 31.8618,24.7794986 C32.3338,25.7065257 32.4104667,26.7772419 32.0971333,27.7552554 C29.1544667,26.5746203 25.7838,27.0765392 23.3071333,29.1193095 C22.0338,30.1694986 21.1158,31.6189716 20.6518,33.3107959 C20.2318,34.8430392 20.1878,36.5315527 20.5244667,38.1922554 C20.5251333,38.1968905 20.5264667,38.2021878 20.5278,38.206823 C20.5284667,38.2107959 20.5291333,38.2147689 20.5298,38.2187419 C20.8531333,39.5682284 21.2558,41.2474716 21.9244667,42.7989176 C22.2678,43.5954986 22.7011333,44.3549986 23.2118,45.0575527 C23.8931333,45.9945122 24.7131333,46.8294986 25.6484667,47.541323 C26.3191333,48.0511878 27.6384667,48.8682959 29.2091333,48.8682959 C29.3184667,48.8682959 29.4291333,48.864323 29.5404667,48.8557149 C30.6244667,48.7749311 31.3911333,48.251823 31.9378,47.8048635 C32.0131333,47.7432824 32.0878,47.6830257 32.1631333,47.6227689 L32.2784667,47.5300662 C32.2864667,47.5234446 32.2938,47.5161608 32.3018,47.5095392 C32.3091333,47.5022554 32.3178,47.4962959 32.3251333,47.4896743 C32.4218,47.3976338 32.5791333,47.3969716 32.6751333,47.4890122 C32.6798,47.4929851 32.6844667,47.4962959 32.6891333,47.5009311 C32.6938,47.5049041 32.6971333,47.5095392 32.7018,47.51285 C32.8964667,47.6817014 33.1551333,47.9002149 33.4324667,48.0995257 C33.9891333,48.5007959 34.6011333,48.7517554 35.2024667,48.8259176 C35.3884667,48.8484311 35.5764667,48.86035 35.7658,48.86035 C36.9544667,48.86035 38.1964667,48.4114041 39.3178,47.5678095 C40.1644667,46.9301473 40.8691333,46.2467959 41.4718,45.4773635 C41.7851333,45.0787419 42.1851333,44.544377 42.5071333,43.9484311 C43.1431333,42.7724311 43.6411333,41.4587014 44.0758,39.8132284 C44.2178,39.2742284 44.3464667,38.737877 44.4711333,38.2194041 C44.4711333,38.2180797 44.4711333,38.2167554 44.4718,38.2160932 C44.4718,38.2147689 44.4724667,38.2134446 44.4724667,38.2127824 C44.8484667,36.5805527 44.8131333,34.8874041 44.3698,33.3167554 C43.8938,31.6282419 42.9638,30.1774446 41.6811333,29.1193095" id="Fill-5" fill="#004b87"></path>
                <path d="M41.5028,20.9252514 C41.3901333,20.5193459 40.9674667,20.2809676 40.5588,20.392873 C38.6441333,20.9166432 37.0088,22.2151432 36.0721333,23.9546432 C35.8721333,24.3261162 36.0134667,24.7883054 36.3874667,24.9869541 C36.5028,25.047873 36.6268,25.0770081 36.7488,25.0770081 C37.0228,25.0770081 37.2874667,24.9306703 37.4261333,24.6737514 C38.1654667,23.3010892 39.4561333,22.2760622 40.9668,21.862873 C41.3754667,21.7509676 41.6154667,21.3311568 41.5028,20.9252514" id="Fill-7" fill="#004b87"></path>
            </g>
        </g>
    </g>
</svg>