<?xml version="1.0" encoding="UTF-8" standalone="no"?>
<svg width="54px" height="55px" viewBox="0 0 54 55" version="1.1" xmlns="http://www.w3.org/2000/svg" xmlns:xlink="http://www.w3.org/1999/xlink">
    <!-- Generator: Sketch 40.3 (33839) - http://www.bohemiancoding.com/sketch -->
    <title>Page 1</title>
    <desc>Created with Sketch.</desc>
    <defs>
        <polygon id="path-1" points="31.769 54.9998 31.769 0.6698 0.4237 0.6698 0.4237 54.9998 31.769 54.9998"></polygon>
        <polygon id="path-3" points="0 55.3306 53.769 55.3306 53.769 0.9996 0 0.9996"></polygon>
    </defs>
    <g id="Page-1" stroke="none" stroke-width="1" fill="none" fill-rule="evenodd">
        <g transform="translate(0.000000, -1.000000)">
            <path d="M37.0517,41.7474 C37.0517,41.1714 36.5837,40.7024 36.0067,40.7024 C35.4307,40.7024 34.9617,41.1714 34.9617,41.7474 L34.9617,43.8374 C34.9617,44.4144 35.4307,44.8824 36.0067,44.8824 C36.5837,44.8824 37.0517,44.4144 37.0517,43.8374 L37.0517,41.7474 L37.0517,41.7474 Z" id="Fill-1" fill="#156E96"></path>
            <path d="M37.0517,29.2094 C37.0517,28.6334 36.5837,28.1654 36.0067,28.1654 C35.4307,28.1654 34.9617,28.6334 34.9617,29.2094 L34.9617,31.3004 C34.9617,31.8764 35.4307,32.3444 36.0067,32.3444 C36.5837,32.3444 37.0517,31.8764 37.0517,31.3004 L37.0517,29.2094 Z" id="Fill-3" fill="#156E96"></path>
            <path d="M32.872,29.2094 C32.872,28.6334 32.404,28.1654 31.828,28.1654 C31.251,28.1654 30.782,28.6334 30.782,29.2094 L30.782,31.3004 C30.782,31.8764 31.251,32.3444 31.828,32.3444 C32.404,32.3444 32.872,31.8764 32.872,31.3004 L32.872,29.2094 Z" id="Fill-5" fill="#156E96"></path>
            <path d="M36.0068,46.972 C35.4298,46.972 34.9618,47.44 34.9618,48.017 L34.9618,50.107 C34.9618,50.684 35.4298,51.152 36.0068,51.152 C36.5838,51.152 37.0518,50.684 37.0518,50.107 L37.0518,48.017 C37.0518,47.44 36.5838,46.972 36.0068,46.972" id="Fill-7" fill="#156E96"></path>
            <path d="M37.0517,35.4789 C37.0517,34.9029 36.5837,34.4339 36.0067,34.4339 C35.4307,34.4339 34.9617,34.9029 34.9617,35.4789 L34.9617,37.5689 C34.9617,38.1449 35.4307,38.6139 36.0067,38.6139 C36.5837,38.6139 37.0517,38.1449 37.0517,37.5689 L37.0517,35.4789 Z" id="Fill-9" fill="#156E96"></path>
            <path d="M32.872,35.4789 C32.872,34.9029 32.404,34.4339 31.828,34.4339 C31.251,34.4339 30.782,34.9029 30.782,35.4789 L30.782,37.5689 C30.782,38.1449 31.251,38.6139 31.828,38.6139 C32.404,38.6139 32.872,38.1449 32.872,37.5689 L32.872,35.4789 Z" id="Fill-11" fill="#156E96"></path>
            <path d="M31.8281,46.972 C31.2511,46.972 30.7821,47.44 30.7821,48.017 L30.7821,50.107 C30.7821,50.684 31.2511,51.152 31.8281,51.152 C32.4041,51.152 32.8721,50.684 32.8721,50.107 L32.8721,48.017 C32.8721,47.44 32.4041,46.972 31.8281,46.972" id="Fill-13" fill="#156E96"></path>
            <path d="M32.872,41.7474 C32.872,41.1714 32.404,40.7024 31.828,40.7024 C31.251,40.7024 30.782,41.1714 30.782,41.7474 L30.782,43.8374 C30.782,44.4144 31.251,44.8824 31.828,44.8824 C32.404,44.8824 32.872,44.4144 32.872,43.8374 L32.872,41.7474 Z" id="Fill-15" fill="#156E96"></path>
            <path d="M37.0517,22.9408 C37.0517,22.3648 36.5837,21.8958 36.0067,21.8958 C35.4307,21.8958 34.9617,22.3648 34.9617,22.9408 L34.9617,25.0308 C34.9617,25.6078 35.4307,26.0758 36.0067,26.0758 C36.5837,26.0758 37.0517,25.6078 37.0517,25.0308 L37.0517,22.9408 Z" id="Fill-17" fill="#156E96"></path>
            <path d="M37.0517,12.4926 L37.0517,10.4026 C37.0517,9.8266 36.5837,9.3586 36.0067,9.3586 C35.4307,9.3586 34.9617,9.8266 34.9617,10.4026 L34.9617,12.4926 C34.9617,13.0696 35.4307,13.5376 36.0067,13.5376 C36.5837,13.5376 37.0517,13.0696 37.0517,12.4926" id="Fill-19" fill="#156E96"></path>
            <g id="Group-23" transform="translate(22.000000, 0.330600)">
                <mask id="mask-2" fill="white">
                    <use xlink:href="#path-1"></use>
                </mask>
                <g id="Clip-22"></g>
                <path d="M1.4687,54.9998 L27.5897,54.9998 C28.0507,54.9998 28.4577,54.6968 28.5897,54.2548 C28.7197,53.8228 31.7697,43.4678 31.7697,26.7898 C31.7697,26.3938 31.5457,26.0318 31.1907,25.8538 L23.4097,21.9648 L23.4097,1.7138 C23.4097,1.1378 22.9427,0.6698 22.3647,0.6698 C21.7887,0.6698 21.3217,1.1378 21.3217,1.7138 L21.3217,2.9878 L9.5727,5.9248 C9.1087,6.0398 8.7817,6.4578 8.7817,6.9378 L8.7817,12.1618 C8.7817,12.7388 9.2507,13.2068 9.8277,13.2068 C10.4047,13.2068 10.8717,12.7388 10.8717,12.1618 L10.8717,7.7538 L21.3207,5.1418 L21.3207,22.6098 C21.3207,23.0068 21.5437,23.3678 21.8987,23.5458 L29.6767,27.4348 C29.6117,40.9498 27.4677,50.2928 26.7907,52.9108 L2.5137,52.9108 L2.5137,15.5898 L17.1417,19.2468 L17.1417,49.7758 C17.1417,50.3538 17.6097,50.8208 18.1867,50.8208 C18.7627,50.8208 19.2307,50.3538 19.2307,49.7758 L19.2307,18.4308 C19.2307,17.9518 18.9037,17.5338 18.4397,17.4178 L1.7227,13.2378 C1.4117,13.1608 1.0787,13.2288 0.8257,13.4288 C0.5727,13.6258 0.4237,13.9298 0.4237,14.2518 L0.4237,53.9558 C0.4237,54.5318 0.8927,54.9998 1.4687,54.9998" id="Fill-21" fill="#156E96" mask="url(#mask-2)"></path>
            </g>
            <path d="M41.2304,12.4926 L41.2304,10.4026 C41.2304,9.8266 40.7624,9.3586 40.1864,9.3586 C39.6094,9.3586 39.1414,9.8266 39.1414,10.4026 L39.1414,12.4926 C39.1414,13.0696 39.6094,13.5376 40.1864,13.5376 C40.7624,13.5376 41.2304,13.0696 41.2304,12.4926" id="Fill-24" fill="#156E96"></path>
            <path d="M47.5,42.7933 C47.5,43.3693 47.968,43.8373 48.545,43.8373 C49.121,43.8373 49.59,43.3693 49.59,42.7933 L49.59,41.7473 C49.59,41.1713 49.121,40.7033 48.545,40.7033 C47.968,40.7033 47.5,41.1713 47.5,41.7473 L47.5,42.7933 Z" id="Fill-26" fill="#156E96"></path>
            <path d="M48.5449,32.3441 C49.1209,32.3441 49.5899,31.8761 49.5899,31.3001 L49.5899,29.2091 C49.5899,28.6331 49.1209,28.1651 48.5449,28.1651 C47.9679,28.1651 47.4999,28.6331 47.4999,29.2091 L47.4999,31.3001 C47.4999,31.8761 47.9679,32.3441 48.5449,32.3441" id="Fill-28" fill="#156E96"></path>
            <path d="M43.3212,50.1068 C43.3212,50.6838 43.7892,51.1518 44.3652,51.1518 C44.9422,51.1518 45.4102,50.6838 45.4102,50.1068 L45.4102,48.0168 C45.4102,47.4398 44.9422,46.9718 44.3652,46.9718 C43.7892,46.9718 43.3212,47.4398 43.3212,48.0168 L43.3212,50.1068 Z" id="Fill-30" fill="#156E96"></path>
            <path d="M47.5,37.5687 C47.5,38.1447 47.968,38.6137 48.545,38.6137 C49.121,38.6137 49.59,38.1447 49.59,37.5687 L49.59,35.4787 C49.59,34.9027 49.121,34.4337 48.545,34.4337 C47.968,34.4337 47.5,34.9027 47.5,35.4787 L47.5,37.5687 Z" id="Fill-32" fill="#156E96"></path>
            <path d="M32.872,22.9408 C32.872,22.3648 32.404,21.8958 31.828,21.8958 C31.251,21.8958 30.782,22.3648 30.782,22.9408 L30.782,25.0308 C30.782,25.6078 31.251,26.0758 31.828,26.0758 C32.404,26.0758 32.872,25.6078 32.872,25.0308 L32.872,22.9408 Z" id="Fill-34" fill="#156E96"></path>
            <path d="M28.6933,29.2094 C28.6933,28.6334 28.2243,28.1654 27.6483,28.1654 C27.0723,28.1654 26.6033,28.6334 26.6033,29.2094 L26.6033,31.3004 C26.6033,31.8764 27.0723,32.3444 27.6483,32.3444 C28.2243,32.3444 28.6933,31.8764 28.6933,31.3004 L28.6933,29.2094 Z" id="Fill-36" fill="#156E96"></path>
            <path d="M43.3212,43.8373 C43.3212,44.4143 43.7892,44.8823 44.3652,44.8823 C44.9422,44.8823 45.4102,44.4143 45.4102,43.8373 L45.4102,41.7473 C45.4102,41.1713 44.9422,40.7023 44.3652,40.7023 C43.7892,40.7023 43.3212,41.1713 43.3212,41.7473 L43.3212,43.8373 Z" id="Fill-38" fill="#156E96"></path>
            <path d="M28.6933,35.4789 C28.6933,34.9029 28.2243,34.4339 27.6483,34.4339 C27.0723,34.4339 26.6033,34.9029 26.6033,35.4789 L26.6033,37.5689 C26.6033,38.1449 27.0723,38.6139 27.6483,38.6139 C28.2243,38.6139 28.6933,38.1449 28.6933,37.5689 L28.6933,35.4789 Z" id="Fill-40" fill="#156E96"></path>
            <path d="M28.6933,41.7474 C28.6933,41.1714 28.2243,40.7024 27.6483,40.7024 C27.0723,40.7024 26.6033,41.1714 26.6033,41.7474 L26.6033,43.8374 C26.6033,44.4144 27.0723,44.8824 27.6483,44.8824 C28.2243,44.8824 28.6933,44.4144 28.6933,43.8374 L28.6933,41.7474 Z" id="Fill-42" fill="#156E96"></path>
            <path d="M27.6484,46.972 C27.0724,46.972 26.6034,47.44 26.6034,48.017 L26.6034,50.107 C26.6034,50.684 27.0724,51.152 27.6484,51.152 C28.2244,51.152 28.6934,50.684 28.6934,50.107 L28.6934,48.017 C28.6934,47.44 28.2244,46.972 27.6484,46.972" id="Fill-44" fill="#156E96"></path>
            <path d="M44.3652,32.3441 C44.9422,32.3441 45.4102,31.8761 45.4102,31.3001 L45.4102,29.2091 C45.4102,28.6331 44.9422,28.1651 44.3652,28.1651 C43.7892,28.1651 43.3212,28.6331 43.3212,29.2091 L43.3212,31.3001 C43.3212,31.8761 43.7892,32.3441 44.3652,32.3441" id="Fill-46" fill="#156E96"></path>
            <path d="M28.6933,22.9408 C28.6933,22.3648 28.2243,21.8958 27.6483,21.8958 C27.0723,21.8958 26.6033,22.3648 26.6033,22.9408 L26.6033,25.0308 C26.6033,25.6078 27.0723,26.0758 27.6483,26.0758 C28.2243,26.0758 28.6933,25.6078 28.6933,25.0308 L28.6933,22.9408 Z" id="Fill-48" fill="#156E96"></path>
            <path d="M43.3212,37.5687 C43.3212,38.1447 43.7892,38.6137 44.3652,38.6137 C44.9422,38.6137 45.4102,38.1447 45.4102,37.5687 L45.4102,35.4787 C45.4102,34.9027 44.9422,34.4337 44.3652,34.4337 C43.7892,34.4337 43.3212,34.9027 43.3212,35.4787 L43.3212,37.5687 Z" id="Fill-50" fill="#156E96"></path>
            <mask id="mask-4" fill="white">
                <use xlink:href="#path-3"></use>
            </mask>
            <g id="Clip-53"></g>
            <path d="M8.993,53.4306 L17.226,53.4306 L17.226,51.2766 L8.993,51.2766 L8.993,53.4306 Z M8.993,49.3766 L17.226,49.3766 L17.226,47.2236 L8.993,47.2236 L8.993,49.3766 Z M8.994,45.3246 L17.227,45.3246 L17.227,43.1706 L8.994,43.1706 L8.994,45.3246 Z M3.927,31.0116 L22.293,31.0116 L22.293,53.4306 L19.126,53.4306 L19.126,43.1706 L19.189,43.1706 C19.714,43.1706 20.14,42.7456 20.14,42.2206 C20.14,41.6966 19.714,41.2706 19.189,41.2706 L7.029,41.2706 C6.505,41.2706 6.079,41.6966 6.079,42.2206 C6.079,42.7456 6.505,43.1706 7.029,43.1706 L7.094,43.1706 L7.094,53.4306 L3.927,53.4306 L3.927,31.0116 Z M10.59,17.8386 L15.63,17.8386 L16.166,29.1106 L10.053,29.1106 L10.59,17.8386 Z M15.243,9.7316 L15.347,11.8856 L10.873,11.8856 L10.976,9.7316 L15.243,9.7316 Z M10.782,13.7856 L15.437,13.7856 L15.539,15.9376 L10.68,15.9376 L10.782,13.7856 Z M23.085,29.1106 L18.068,29.1106 L17.099,8.7366 C17.074,8.2296 16.657,7.8316 16.149,7.8316 L10.07,7.8316 C9.562,7.8316 9.144,8.2296 9.121,8.7366 L8.15,29.1106 L1.963,29.1106 C1.438,29.1106 1.013,29.5366 1.013,30.0606 C1.013,30.5866 1.438,31.0116 1.963,31.0116 L2.026,31.0116 L2.026,53.4306 L0.95,53.4306 C0.426,53.4306 0,53.8556 0,54.3806 C0,54.9046 0.426,55.3306 0.95,55.3306 L23.015,55.3306 L23.085,29.1106 Z" id="Fill-52" fill="#156E96" mask="url(#mask-4)"></path>
            <path d="M7.0293,39.1176 L11.0833,39.1176 C11.6073,39.1176 12.0333,38.6926 12.0333,38.1686 C12.0333,37.6426 11.6073,37.2186 11.0833,37.2186 L7.0293,37.2186 C6.5053,37.2186 6.0793,37.6426 6.0793,38.1686 C6.0793,38.6926 6.5053,39.1176 7.0293,39.1176" id="Fill-54" fill="#2F7EA2" mask="url(#mask-4)"></path>
            <path d="M15.1367,39.1176 L19.1897,39.1176 C19.7137,39.1176 20.1397,38.6926 20.1397,38.1686 C20.1397,37.6426 19.7137,37.2186 19.1897,37.2186 L15.1367,37.2186 C14.6117,37.2186 14.1867,37.6426 14.1867,38.1686 C14.1867,38.6926 14.6117,39.1176 15.1367,39.1176" id="Fill-55" fill="#2F7EA2" mask="url(#mask-4)"></path>
            <path d="M7.0293,35.0648 L11.0833,35.0648 C11.6073,35.0648 12.0333,34.6388 12.0333,34.1148 C12.0333,33.5898 11.6073,33.1648 11.0833,33.1648 L7.0293,33.1648 C6.5053,33.1648 6.0793,33.5898 6.0793,34.1148 C6.0793,34.6388 6.5053,35.0648 7.0293,35.0648" id="Fill-56" fill="#2F7EA2" mask="url(#mask-4)"></path>
            <path d="M15.1367,35.0648 L19.1897,35.0648 C19.7137,35.0648 20.1397,34.6388 20.1397,34.1148 C20.1397,33.5898 19.7137,33.1648 19.1897,33.1648 L15.1367,33.1648 C14.6117,33.1648 14.1867,33.5898 14.1867,34.1148 C14.1867,34.6388 14.6117,35.0648 15.1367,35.0648" id="Fill-57" fill="#2F7EA2" mask="url(#mask-4)"></path>
        </g>
    </g>
</svg>