<?xml version="1.0" encoding="UTF-8" standalone="no"?>
<svg width="46px" height="49px" viewBox="0 0 46 49" version="1.1" xmlns="http://www.w3.org/2000/svg" xmlns:xlink="http://www.w3.org/1999/xlink">
    <!-- Generator: Sketch 40.3 (33839) - http://www.bohemiancoding.com/sketch -->
    <title>Churches</title>
    <desc>Created with Sketch.</desc>
    <defs></defs>
    <g id="Page-1" stroke="none" stroke-width="1" fill="none" fill-rule="evenodd">
        <g id="Churches" transform="translate(-115.000000, -18.000000)" fill="#004b87">
            <path d="M122.328161,59.8446391 C122.328161,59.7399892 122.423479,59.6446711 122.528129,59.6446711 L125.98291,59.6446711 C126.088226,59.6446711 126.182878,59.7399892 126.182878,59.8446391 L126.182878,63.8120044 L122.328161,63.8120044 L122.328161,59.8446391 Z M118.816056,52.7204455 C118.816056,52.2491876 119.133339,51.8125908 119.587266,51.6572823 L119.587933,51.6572823 L129.694982,48.2018351 L129.694982,63.8120044 L128.043913,63.8120044 L128.043913,59.8446391 C128.043913,58.7081543 127.119395,57.7836355 125.98291,57.7836355 L122.528129,57.7836355 C121.391644,57.7836355 120.467125,58.7081543 120.467125,59.8446391 L120.467125,63.8120044 L118.816056,63.8120044 L118.816056,52.7204455 Z M137.089799,29.370181 C137.090466,29.3688479 137.091799,29.3675148 137.093132,29.3668482 C137.095132,29.3655151 137.097132,29.364182 137.099131,29.3635154 C137.491735,29.0768946 138.034315,29.0708956 138.420253,29.3468514 L138.420253,29.3468514 L141.185811,31.3298675 L134.338906,31.3298675 L137.089799,29.370181 Z M141.71506,59.8446391 C141.71506,58.7081543 140.790541,57.7836355 139.654056,57.7836355 L136.199275,57.7836355 C135.06279,57.7836355 134.138272,58.7081543 134.138272,59.8446391 L134.138272,63.8120044 L131.953954,63.8120044 L131.953954,33.6115025 C131.953954,33.6041704 131.954621,33.5968382 131.954621,33.589506 L143.557431,33.589506 C143.557431,33.5968382 143.558098,33.6041704 143.558098,33.6115025 L143.558098,63.8120044 L141.71506,63.8120044 L141.71506,59.8446391 Z M135.999307,59.8446391 C135.999307,59.7399892 136.094625,59.6446711 136.199275,59.6446711 L139.654056,59.6446711 C139.758706,59.6446711 139.854024,59.7399892 139.854024,59.8446391 L139.854024,63.8120044 L135.999307,63.8120044 L135.999307,59.8446391 Z M149.329175,59.8446391 C149.329175,59.7399892 149.424493,59.6446711 149.529143,59.6446711 L152.970592,59.6446711 C153.078575,59.6446711 153.183891,59.7439886 153.183891,59.8446391 L153.183891,63.8120044 L149.329175,63.8120044 L149.329175,59.8446391 Z M155.92412,51.6572823 L155.924786,51.6572823 L155.925453,51.6572823 C156.386046,51.8145904 156.695996,52.2418554 156.695996,52.7204455 L156.695996,63.8120044 L155.044927,63.8120044 L155.044927,59.8446391 C155.044927,58.7174861 154.129074,57.7989664 152.997921,57.7843021 C152.993255,57.7843021 152.988589,57.7836355 152.983923,57.7836355 L149.529143,57.7836355 C148.393324,57.7836355 147.468139,58.7081543 147.468139,59.8446391 L147.468139,63.8120044 L145.81707,63.8120044 L145.81707,48.2018351 L155.92412,51.6572823 Z M159.574202,63.8120044 L158.955635,63.8120044 L158.955635,52.7204455 C158.955635,51.2760099 158.031783,49.9895491 156.656669,49.5196242 C156.656669,49.5196242 156.656003,49.5189577 156.655336,49.5189577 L145.81707,45.8135505 L145.81707,33.6115025 C145.81707,32.5210103 145.290488,31.4918416 144.407962,30.8592761 L144.407295,30.8586096 L139.736709,27.5104785 L139.736043,27.509812 C139.470752,27.3191758 139.184131,27.1725326 138.886179,27.0685492 L138.886179,24.5889459 L141.77705,24.5889459 C142.40095,24.5889459 142.906869,24.0830269 142.906869,23.4591267 C142.906869,22.8352265 142.40095,22.3293074 141.77705,22.3293074 L138.886179,22.3293074 L138.886179,19.1291527 C138.886179,18.5052525 138.38026,18 137.756359,18 C137.131793,18 136.625874,18.5052525 136.625874,19.1291527 L136.625874,22.3293074 L133.71234,22.3293074 C133.08844,22.3293074 132.582521,22.8352265 132.582521,23.4591267 C132.582521,24.0830269 133.08844,24.5889459 133.71234,24.5889459 L136.625874,24.5889459 L136.625874,27.0818804 C136.331254,27.1878635 136.046633,27.3365064 135.782009,27.5271425 C135.781342,27.5278091 135.780009,27.5284757 135.778676,27.5298088 L131.107423,30.8566099 L131.106757,30.8572765 L131.10609,30.8572765 C130.222231,31.4891754 129.694982,32.5183441 129.694982,33.6115025 L129.694982,45.8135505 L118.856716,49.5189577 C118.85605,49.5189577 118.85605,49.5196242 118.855383,49.5196242 C117.480936,49.9888825 116.557084,51.2753434 116.557084,52.7204455 L116.557084,63.8120044 L116.129819,63.8120044 C115.505919,63.8120044 115,64.3179235 115,64.9418237 C115,65.5657239 115.505919,66.071643 116.129819,66.071643 L159.574202,66.071643 C160.198103,66.071643 160.704022,65.5657239 160.704022,64.9418237 C160.704022,64.3179235 160.198103,63.8120044 159.574202,63.8120044 L159.574202,63.8120044 Z"></path>
        </g>
    </g>
</svg>